<?xml version="1.0" standalone="no"?>
<!DOCTYPE svg PUBLIC "-//W3C//DTD SVG 1.1//EN" "http://www.w3.org/Graphics/SVG/1.1/DTD/svg11.dtd" >
<svg>
<metadata>
Created by FontForge 20090622 at Tue Jan  2 19:52:59 2018
 By deploy user
&#194;&#169; 2016 AT&#38;T Intellectual Property. All rights reserved.
</metadata>
<defs>
<font id="ATTAleckSlab-Regular" horiz-adv-x="438" >
  <font-face 
    font-family="ATT Aleck Slab"
    font-weight="400"
    font-stretch="normal"
    units-per-em="1000"
    panose-1="2 6 5 3 2 2 6 2 2 4"
    ascent="750"
    descent="-250"
    x-height="519"
    cap-height="700"
    bbox="-182 -257 1298 962"
    underline-thickness="58"
    underline-position="-82"
    unicode-range="U+0008-U+FEFF"
  />
<missing-glyph horiz-adv-x="500" 
d="M450 0h-400v750h400v-750zM400 50v650h-300v-650h300z" />
    <glyph glyph-name="f_b" unicode="fb" horiz-adv-x="970" 
d="M53 60h69v394h-97v65h97v46q0 92 43.5 143.5t121.5 51.5q34 0 59 -11l-14 -61q-18 5 -39 5q-46 0 -71 -33t-25 -94v-47h159v-65h-159v-394h79v-60h-223v60zM391 750h144v-284q42 35 80.5 49.5t88.5 14.5q66 0 115 -35t75.5 -96.5t26.5 -139.5q0 -81 -30 -142t-82 -94
t-119 -33q-44 0 -85 14t-75 40l-6 -44h-64v690h-69v60zM687 463q-41 0 -77 -15t-75 -48v-288q30 -27 66.5 -41t75.5 -14q76 0 122 55.5t46 146.5t-43.5 147.5t-114.5 56.5z" />
    <glyph glyph-name="ff" unicode="ff" horiz-adv-x="714" 
d="M53 60h69v394h-97v65h97v46q0 91 45 143t124 52q46 0 80 -17l-15 -59q-25 9 -56 9q-49 0 -76 -33t-27 -94v-47h300v-65h-300v-394h79v-60h-223v60zM391 60h69v394h-97v65h97v46q0 91 46 143t127 52q53 0 98 -23l-15 -59q-41 15 -77 15q-50 0 -77 -33t-27 -94v-47h163v-65
h-163v-394h79v-60h-223v60z" />
    <glyph glyph-name="f_h" unicode="fh" horiz-adv-x="988" 
d="M53 60h69v394h-97v65h97v46q0 92 43.5 143.5t121.5 51.5q34 0 59 -11l-14 -61q-18 5 -39 5q-46 0 -71 -33t-25 -94v-47h159v-65h-159v-394h79v-60h-223v60zM747 60h69v258q0 142 -124 142q-81 0 -157 -65v-335h69v-60h-213v60h69v630h-69v60h144v-292q46 38 88.5 55
t92.5 17q85 0 130 -52.5t45 -153.5v-264h69v-60h-213v60z" />
    <glyph glyph-name="fi" unicode="fi" horiz-adv-x="637" 
d="M53 60h69v394h-97v65h97v46q0 91 45 143t124 52q46 0 80 -17l-15 -59q-25 9 -56 9q-49 0 -76 -33t-27 -94v-47h300v-65h-300v-394h79v-60h-223v60zM391 60h69v399h-69v60h144v-459h69v-60h-213v60zM490 727q23 0 36.5 -13.5t13.5 -34.5t-13.5 -34.5t-36.5 -13.5
t-36.5 13.5t-13.5 34.5t13.5 34.5t36.5 13.5z" />
    <glyph glyph-name="f_j" unicode="fj" horiz-adv-x="612" 
d="M53 60h69v394h-97v65h97v46q0 91 45 143t124 52q46 0 80 -17l-15 -59q-25 9 -56 9q-49 0 -76 -33t-27 -94v-47h300v-65h-300v-394h79v-60h-223v60zM391 519h144v-571q0 -82 -34.5 -128t-97.5 -46q-47 0 -84 19l16 58q26 -10 53 -10q72 0 72 105v513h-69v60zM490 727
q23 0 36.5 -13.5t13.5 -34.5t-13.5 -34.5t-36.5 -13.5t-36.5 13.5t-13.5 34.5t13.5 34.5t36.5 13.5z" />
    <glyph glyph-name="f_k" unicode="fk" horiz-adv-x="955" 
d="M53 60h69v394h-97v65h97v46q0 92 43.5 143.5t121.5 51.5q34 0 59 -11l-14 -61q-18 5 -39 5q-46 0 -71 -33t-25 -94v-47h159v-65h-159v-394h79v-60h-223v60zM715 60h53l-162 209l-71 -60v-149h69v-60h-213v60h69v630h-69v60h144v-460l201 169h-54v60h228v-60h-73
l-174 -146l199 -253h72v-60h-219v60z" />
    <glyph glyph-name="fl" unicode="fl" horiz-adv-x="637" 
d="M53 60h69v394h-97v65h97v46q0 92 43.5 143.5t121.5 51.5q34 0 59 -11l-14 -61q-18 5 -39 5q-46 0 -71 -33t-25 -94v-47h159v-65h-159v-394h79v-60h-223v60zM391 750h144v-690h69v-60h-213v60h69v630h-69v60z" />
    <glyph glyph-name="f_t" unicode="ft" horiz-adv-x="767" 
d="M53 60h69v394h-97v65h97v46q0 91 45 143t124 52q46 0 80 -17l-15 -59q-25 9 -56 9q-49 0 -76 -33t-27 -94v-47h300v-65h-300v-394h79v-60h-223v60zM615 -10q-82 0 -121 46.5t-39 143.5v274h-93v65h95l13 148h60v-148h183v-65h-183v-266q0 -131 97 -131q48 0 90 24l18 -58
q-24 -15 -56.5 -24t-63.5 -9z" />
    <glyph glyph-name="f_f_b" unicode="ffb" horiz-adv-x="1308" 
d="M53 60h69v394h-97v65h97v46q0 91 45 143t124 52q46 0 80 -17l-15 -59q-25 9 -56 9q-49 0 -76 -33t-27 -94v-47h300v-65h-300v-394h79v-60h-223v60zM391 60h69v394h-97v65h97v46q0 92 43.5 143.5t121.5 51.5q34 0 59 -11l-14 -61q-18 5 -39 5q-46 0 -71 -33t-25 -94v-47
h159v-65h-159v-394h79v-60h-223v60zM729 750h144v-284q42 35 80.5 49.5t88.5 14.5q66 0 115 -35t75.5 -96.5t26.5 -139.5q0 -81 -30 -142t-82 -94t-119 -33q-44 0 -85 14t-75 40l-6 -44h-64v690h-69v60zM1025 463q-41 0 -77 -15t-75 -48v-288q30 -27 66.5 -41t75.5 -14
q76 0 122 55.5t46 146.5t-43.5 147.5t-114.5 56.5z" />
    <glyph glyph-name="f_f_h" unicode="ffh" horiz-adv-x="1326" 
d="M53 60h69v394h-97v65h97v46q0 91 45 143t124 52q46 0 80 -17l-15 -59q-25 9 -56 9q-49 0 -76 -33t-27 -94v-47h300v-65h-300v-394h79v-60h-223v60zM391 60h69v394h-97v65h97v46q0 92 43.5 143.5t121.5 51.5q34 0 59 -11l-14 -61q-18 5 -39 5q-46 0 -71 -33t-25 -94v-47
h159v-65h-159v-394h79v-60h-223v60zM1085 60h69v258q0 142 -124 142q-81 0 -157 -65v-335h69v-60h-213v60h69v630h-69v60h144v-292q46 38 88.5 55t92.5 17q85 0 130 -52.5t45 -153.5v-264h69v-60h-213v60z" />
    <glyph glyph-name="ffi" unicode="ffi" horiz-adv-x="975" 
d="M53 60h69v394h-97v65h97v46q0 91 45 143t124 52q46 0 80 -17l-15 -59q-25 9 -56 9q-49 0 -76 -33t-27 -94v-47h300v-65h-300v-394h79v-60h-223v60zM391 60h69v394h-97v65h97v46q0 91 45 143t124 52q46 0 80 -17l-15 -59q-25 9 -56 9q-49 0 -76 -33t-27 -94v-47h300v-65
h-300v-394h79v-60h-223v60zM729 60h69v399h-69v60h144v-459h69v-60h-213v60zM828 727q23 0 36.5 -13.5t13.5 -34.5t-13.5 -34.5t-36.5 -13.5t-36.5 13.5t-13.5 34.5t13.5 34.5t36.5 13.5z" />
    <glyph glyph-name="f_f_j" unicode="ffj" horiz-adv-x="950" 
d="M53 60h69v394h-97v65h97v46q0 91 45 143t124 52q46 0 80 -17l-15 -59q-25 9 -56 9q-49 0 -76 -33t-27 -94v-47h300v-65h-300v-394h79v-60h-223v60zM391 60h69v394h-97v65h97v46q0 91 45 143t124 52q46 0 80 -17l-15 -59q-25 9 -56 9q-49 0 -76 -33t-27 -94v-47h300v-65
h-300v-394h79v-60h-223v60zM729 519h144v-571q0 -82 -34.5 -128t-97.5 -46q-47 0 -84 19l16 58q26 -10 53 -10q72 0 72 105v513h-69v60zM828 727q23 0 36.5 -13.5t13.5 -34.5t-13.5 -34.5t-36.5 -13.5t-36.5 13.5t-13.5 34.5t13.5 34.5t36.5 13.5z" />
    <glyph glyph-name="f_f_k" unicode="ffk" horiz-adv-x="1293" 
d="M53 60h69v394h-97v65h97v46q0 91 45 143t124 52q46 0 80 -17l-15 -59q-25 9 -56 9q-49 0 -76 -33t-27 -94v-47h300v-65h-300v-394h79v-60h-223v60zM391 60h69v394h-97v65h97v46q0 92 43.5 143.5t121.5 51.5q34 0 59 -11l-14 -61q-18 5 -39 5q-46 0 -71 -33t-25 -94v-47
h159v-65h-159v-394h79v-60h-223v60zM1053 60h53l-162 209l-71 -60v-149h69v-60h-213v60h69v630h-69v60h144v-460l201 169h-54v60h228v-60h-73l-174 -146l199 -253h72v-60h-219v60z" />
    <glyph glyph-name="ffl" unicode="ffl" horiz-adv-x="975" 
d="M53 60h69v394h-97v65h97v46q0 91 45 143t124 52q46 0 80 -17l-15 -59q-25 9 -56 9q-49 0 -76 -33t-27 -94v-47h300v-65h-300v-394h79v-60h-223v60zM391 60h69v394h-97v65h97v46q0 92 43.5 143.5t121.5 51.5q34 0 59 -11l-14 -61q-18 5 -39 5q-46 0 -71 -33t-25 -94v-47
h159v-65h-159v-394h79v-60h-223v60zM729 750h144v-690h69v-60h-213v60h69v630h-69v60z" />
    <glyph glyph-name="f_f_t" unicode="fft" horiz-adv-x="1105" 
d="M53 60h69v394h-97v65h97v46q0 91 45 143t124 52q46 0 80 -17l-15 -59q-25 9 -56 9q-49 0 -76 -33t-27 -94v-47h300v-65h-300v-394h79v-60h-223v60zM391 60h69v394h-97v65h97v46q0 91 45 143t124 52q46 0 80 -17l-15 -59q-25 9 -56 9q-49 0 -76 -33t-27 -94v-47h300v-65
h-300v-394h79v-60h-223v60zM953 -10q-82 0 -121 46.5t-39 143.5v274h-93v65h95l13 148h60v-148h183v-65h-183v-266q0 -131 97 -131q48 0 90 24l18 -58q-24 -15 -56.5 -24t-63.5 -9z" />
    <glyph glyph-name=".notdef" horiz-adv-x="500" 
d="M450 0h-400v750h400v-750zM400 50v650h-300v-650h300z" />
    <glyph glyph-name=".null" horiz-adv-x="0" 
 />
    <glyph glyph-name=".null" horiz-adv-x="0" 
 />
    <glyph glyph-name=".null" horiz-adv-x="0" 
 />
    <glyph glyph-name="nonmarkingreturn" unicode="&#x9;" horiz-adv-x="230" 
 />
    <glyph glyph-name="nonmarkingreturn" unicode="&#xd;" horiz-adv-x="230" 
 />
    <glyph glyph-name="space" unicode=" " horiz-adv-x="230" 
 />
    <glyph glyph-name="period" unicode="." horiz-adv-x="212" 
d="M106 -10q-23 0 -38.5 15t-15.5 37t15.5 37t38.5 15t38.5 -15t15.5 -37t-15.5 -37t-38.5 -15z" />
    <glyph glyph-name="colon" unicode=":" horiz-adv-x="212" 
d="M106 -10q-23 0 -38.5 15t-15.5 37t15.5 37t38.5 15t38.5 -15t15.5 -37t-15.5 -37t-38.5 -15zM106 415q-23 0 -38.5 15t-15.5 37t15.5 37t38.5 15t38.5 -15t15.5 -37t-15.5 -37t-38.5 -15z" />
    <glyph glyph-name="comma" unicode="," horiz-adv-x="212" 
d="M18 -113q68 51 79 107q-21 3 -33 16t-12 33q0 22 15 36.5t38 14.5q25 0 39.5 -17t14.5 -48q0 -48 -30.5 -93.5t-85.5 -81.5z" />
    <glyph glyph-name="semicolon" unicode=";" horiz-adv-x="212" 
d="M18 -113q68 51 79 107q-21 3 -33 16t-12 33q0 22 15 36.5t38 14.5q25 0 39.5 -17t14.5 -48q0 -48 -30.5 -93.5t-85.5 -81.5zM106 415q-23 0 -38.5 15t-15.5 37t15.5 37t38.5 15t38.5 -15t15.5 -37t-15.5 -37t-38.5 -15z" />
    <glyph glyph-name="question" unicode="?" horiz-adv-x="480" 
d="M35 513v124q96 76 211 76q89 0 142.5 -44.5t53.5 -119.5q0 -49 -23.5 -88.5t-75.5 -78.5l-15 -12q-43 -33 -60 -61t-17 -71v-34h-69v34q0 39 8 66.5t27 52t56 52.5l15 12q40 30 57.5 58.5t17.5 64.5q0 46 -35.5 74t-92.5 28q-65 0 -135 -44v-89h-65zM216 -10
q-23 0 -38.5 15t-15.5 37t15.5 37t38.5 15t38.5 -15t15.5 -37t-15.5 -37t-38.5 -15z" />
    <glyph glyph-name="exclam" unicode="!" horiz-adv-x="248" 
d="M155 204h-62l-10 496h82zM124 -10q-23 0 -38.5 15t-15.5 37t15.5 37t38.5 15t38.5 -15t15.5 -37t-15.5 -37t-38.5 -15z" />
    <glyph glyph-name="questiondown" unicode="&#xbf;" horiz-adv-x="480" 
d="M445 7v-124q-96 -76 -211 -76q-89 0 -142.5 44.5t-53.5 119.5q0 49 23.5 88.5t75.5 78.5l15 12q43 33 60 61t17 71v34h69v-34q0 -39 -8 -66.5t-27 -52t-56 -52.5l-15 -12q-40 -30 -57.5 -58.5t-17.5 -64.5q0 -46 35.5 -74t92.5 -28q65 0 135 44v89h65zM264 530
q23 0 38.5 -15t15.5 -37t-15.5 -37t-38.5 -15t-38.5 15t-15.5 37t15.5 37t38.5 15z" />
    <glyph glyph-name="exclamdown" unicode="&#xa1;" horiz-adv-x="248" 
d="M93 316h62l10 -496h-82zM124 530q23 0 38.5 -15t15.5 -37t-15.5 -37t-38.5 -15t-38.5 15t-15.5 37t15.5 37t38.5 15z" />
    <glyph glyph-name="quotesingle" unicode="'" horiz-adv-x="170" 
d="M45 700h80l-9 -260h-62z" />
    <glyph glyph-name="quotedbl" unicode="&#x22;" horiz-adv-x="350" 
d="M45 700h80l-9 -260h-62zM225 700h80l-9 -260h-62z" />
    <glyph glyph-name="ellipsis" unicode="&#x2026;" horiz-adv-x="1000" 
d="M167 -10q-23 0 -38.5 15t-15.5 37t15.5 37t38.5 15t38.5 -15t15.5 -37t-15.5 -37t-38.5 -15zM500 -10q-23 0 -38.5 15t-15.5 37t15.5 37t38.5 15t38.5 -15t15.5 -37t-15.5 -37t-38.5 -15zM833 -10q-23 0 -38.5 15t-15.5 37t15.5 37t38.5 15t38.5 -15t15.5 -37t-15.5 -37
t-38.5 -15z" />
    <glyph glyph-name="uni00A0" unicode="&#xa0;" horiz-adv-x="230" 
 />
    <glyph glyph-name="uni2000" unicode="&#x2000;" horiz-adv-x="500" 
 />
    <glyph glyph-name="uni2001" unicode="&#x2001;" horiz-adv-x="1000" 
 />
    <glyph glyph-name="uni2002" unicode="&#x2002;" horiz-adv-x="500" 
 />
    <glyph glyph-name="uni2003" unicode="&#x2003;" horiz-adv-x="1000" 
 />
    <glyph glyph-name="uni2004" unicode="&#x2004;" horiz-adv-x="333" 
 />
    <glyph glyph-name="uni2005" unicode="&#x2005;" horiz-adv-x="250" 
 />
    <glyph glyph-name="uni2006" unicode="&#x2006;" horiz-adv-x="166" 
 />
    <glyph glyph-name="uni2007" unicode="&#x2007;" horiz-adv-x="600" 
 />
    <glyph glyph-name="uni2008" unicode="&#x2008;" horiz-adv-x="212" 
 />
    <glyph glyph-name="uni2009" unicode="&#x2009;" horiz-adv-x="200" 
 />
    <glyph glyph-name="uni200A" unicode="&#x200a;" horiz-adv-x="55" 
 />
    <glyph glyph-name="uni200B" unicode="&#x200b;" horiz-adv-x="0" 
 />
    <glyph glyph-name="zero" unicode="0" horiz-adv-x="574" 
d="M287 57q76 0 115.5 68.5t39.5 200.5v38q0 132 -39.5 200.5t-115.5 68.5t-115.5 -68.5t-39.5 -200.5v-38q0 -132 39.5 -200.5t115.5 -68.5zM287 -10q-111 0 -172 88t-61 248v38q0 160 61 248t172 88t172 -88t61 -248v-38q0 -160 -61 -248t-172 -88z" />
    <glyph glyph-name="one" unicode="1" horiz-adv-x="525" 
d="M37 534l205 156h72v-622h180v-68h-454v68h198v534l-163 -123z" />
    <glyph glyph-name="two" unicode="2" horiz-adv-x="511" 
d="M60 503v128q41 33 92 51t105 18q60 0 106 -24t70.5 -65t24.5 -92q0 -44 -17.5 -79.5t-58.5 -69.5t-115 -74q-56 -30 -86 -58.5t-43 -67.5t-13 -102h271v111h67v-179h-416v54q0 75 16.5 127t55 93t109.5 80q60 33 92 57t46 48t14 57q0 54 -35 85.5t-96 31.5
q-65 0 -122 -35v-95h-67z" />
    <glyph glyph-name="three" unicode="3" horiz-adv-x="519" 
d="M50 509v132q98 59 194 59q63 0 111 -23.5t73.5 -65t25.5 -96.5q0 -50 -28.5 -90t-79.5 -61q61 -22 93 -67.5t32 -109.5q0 -61 -29.5 -105.5t-82 -68t-119.5 -23.5q-54 0 -106 14.5t-94 41.5v137h67v-98q59 -28 128 -28q74 0 117 36t43 98q0 64 -42 100t-117 36h-85v65h85
q67 0 104.5 31t37.5 88q0 56 -38.5 89t-104.5 33q-61 0 -118 -30v-94h-67z" />
    <glyph glyph-name="four" unicode="4" horiz-adv-x="580" 
d="M280 66h97v112h-346v64l352 448h69v-446h97v-66h-97v-112h97v-66h-269v66zM377 244v334l-265 -334h265z" />
    <glyph glyph-name="five" unicode="5" horiz-adv-x="507" 
d="M376 528v94h-221l-14 -212q66 2 85 2q117 0 181 -54t64 -152t-63.5 -157t-169.5 -59q-110 0 -198 60v134h67v-95q61 -32 126 -32q78 0 120 39t42 110q0 70 -48 106.5t-140 36.5q-12 0 -31.5 -0.5t-41 -0.5t-39 -0.5t-25.5 -0.5l22 343h351v-162h-67z" />
    <glyph glyph-name="six" unicode="6" horiz-adv-x="559" 
d="M417 527v93q-39 13 -83 13q-179 0 -202 -225q75 12 159 12q112 0 170 -54t58 -160q0 -62 -29.5 -112t-80.5 -77t-117 -27q-113 0 -175 82.5t-62 232.5v24q0 118 32.5 201.5t93.5 126.5t146 43q91 0 157 -36v-137h-67zM282 358q-67 0 -153 -11v-46q0 -119 42.5 -181.5
t122.5 -62.5q70 0 110.5 40t40.5 107q0 79 -40 116.5t-123 37.5z" />
    <glyph glyph-name="seven" unicode="7" horiz-adv-x="488" 
d="M26 525v165h436v-65l-137 -254q-65 -120 -90 -196.5t-25 -164.5v-10h-77v10q0 64 11.5 119t40 121.5t80.5 157.5l120 214h-292v-97h-67z" />
    <glyph glyph-name="eight" unicode="8" horiz-adv-x="572" 
d="M49 179q0 61 32.5 106.5t94.5 70.5q-109 45 -109 157q0 56 29 99t79 65.5t113 22.5q66 0 115 -24t75.5 -65t26.5 -92q0 -52 -26.5 -92t-79.5 -65q61 -26 92.5 -70.5t31.5 -104.5q0 -89 -64.5 -143t-172.5 -54q-107 0 -172 52t-65 137zM287 53q74 0 117 37t43 100
q0 57 -38 92.5t-109 46.5l-45 7q-63 -20 -96.5 -58t-33.5 -89q0 -62 43.5 -99t118.5 -37zM326 384q104 39 104 126q0 58 -39 92.5t-104 34.5t-105 -34.5t-40 -91.5q0 -51 34.5 -81t99.5 -39z" />
    <glyph glyph-name="nine" unicode="9" horiz-adv-x="559" 
d="M141 162v-92q36 -13 83 -13q95 0 143.5 54t59.5 172q-74 -10 -160 -10q-113 0 -170 53.5t-57 158.5q0 95 63.5 155t163.5 60q113 0 175 -82.5t62 -232.5v-24q0 -184 -69 -277.5t-204 -93.5q-92 0 -157 35v137h67zM277 334q83 0 153 10v45q0 118 -42.5 181t-122.5 63
q-69 0 -110 -39.5t-41 -107.5q0 -77 40 -114.5t123 -37.5z" />
    <glyph glyph-name="zero.tnum" horiz-adv-x="600" 
d="M300 57q76 0 115.5 68.5t39.5 200.5v38q0 132 -39.5 200.5t-115.5 68.5t-115.5 -68.5t-39.5 -200.5v-38q0 -132 39.5 -200.5t115.5 -68.5zM300 -10q-111 0 -172 88t-61 248v38q0 160 61 248t172 88t172 -88t61 -248v-38q0 -160 -61 -248t-172 -88z" />
    <glyph glyph-name="one.tnum" horiz-adv-x="600" 
d="M80 534l205 156h72v-622h180v-68h-454v68h198v534l-163 -123z" />
    <glyph glyph-name="two.tnum" horiz-adv-x="600" 
d="M108 503v128q41 33 92 51t105 18q60 0 106 -24t70.5 -65t24.5 -92q0 -44 -17.5 -79.5t-58.5 -69.5t-115 -74q-56 -30 -86 -58.5t-43 -67.5t-13 -102h271v111h67v-179h-416v54q0 75 16.5 127t55 93t109.5 80q60 33 92 57t46 48t14 57q0 54 -35 85.5t-96 31.5
q-65 0 -122 -35v-95h-67z" />
    <glyph glyph-name="three.tnum" horiz-adv-x="600" 
d="M97 509v132q98 59 194 59q63 0 111 -23.5t73.5 -65t25.5 -96.5q0 -50 -28.5 -90t-79.5 -61q61 -22 93 -67.5t32 -109.5q0 -61 -29.5 -105.5t-82 -68t-119.5 -23.5q-54 0 -106 14.5t-94 41.5v137h67v-98q59 -28 128 -28q74 0 117 36t43 98q0 64 -42 100t-117 36h-85v65h85
q67 0 104.5 31t37.5 88q0 56 -38.5 89t-104.5 33q-61 0 -118 -30v-94h-67z" />
    <glyph glyph-name="four.tnum" horiz-adv-x="600" 
d="M289 66h97v112h-346v64l352 448h69v-446h97v-66h-97v-112h97v-66h-269v66zM386 244v334l-265 -334h265z" />
    <glyph glyph-name="five.tnum" horiz-adv-x="600" 
d="M421 528v94h-221l-14 -212q66 2 85 2q117 0 181 -54t64 -152t-63.5 -157t-169.5 -59q-110 0 -198 60v134h67v-95q61 -32 126 -32q78 0 120 39t42 110q0 70 -48 106.5t-140 36.5q-12 0 -31.5 -0.5t-41 -0.5t-39 -0.5t-25.5 -0.5l22 343h351v-162h-67z" />
    <glyph glyph-name="six.tnum" horiz-adv-x="600" 
d="M426 527v93q-39 13 -83 13q-179 0 -202 -225q75 12 159 12q112 0 170 -54t58 -160q0 -62 -29.5 -112t-80.5 -77t-117 -27q-113 0 -175 82.5t-62 232.5v24q0 118 32.5 201.5t93.5 126.5t146 43q91 0 157 -36v-137h-67zM291 358q-67 0 -153 -11v-46q0 -119 42.5 -181.5
t122.5 -62.5q70 0 110.5 40t40.5 107q0 79 -40 116.5t-123 37.5z" />
    <glyph glyph-name="seven.tnum" horiz-adv-x="600" 
d="M82 525v165h436v-65l-137 -254q-65 -120 -90 -196.5t-25 -164.5v-10h-77v10q0 64 11.5 119t40 121.5t80.5 157.5l120 214h-292v-97h-67z" />
    <glyph glyph-name="eight.tnum" horiz-adv-x="600" 
d="M63 179q0 61 32.5 106.5t94.5 70.5q-109 45 -109 157q0 56 29 99t79 65.5t113 22.5q66 0 115 -24t75.5 -65t26.5 -92q0 -52 -26.5 -92t-79.5 -65q61 -26 92.5 -70.5t31.5 -104.5q0 -89 -64.5 -143t-172.5 -54q-107 0 -172 52t-65 137zM301 53q74 0 117 37t43 100
q0 57 -38 92.5t-109 46.5l-45 7q-63 -20 -96.5 -58t-33.5 -89q0 -62 43.5 -99t118.5 -37zM340 384q104 39 104 126q0 58 -39 92.5t-104 34.5t-105 -34.5t-40 -91.5q0 -51 34.5 -81t99.5 -39z" />
    <glyph glyph-name="nine.tnum" horiz-adv-x="600" 
d="M173 162v-92q36 -13 83 -13q95 0 143.5 54t59.5 172q-74 -10 -160 -10q-113 0 -170 53.5t-57 158.5q0 95 63.5 155t163.5 60q113 0 175 -82.5t62 -232.5v-24q0 -184 -69 -277.5t-204 -93.5q-92 0 -157 35v137h67zM309 334q83 0 153 10v45q0 118 -42.5 181t-122.5 63
q-69 0 -110 -39.5t-41 -107.5q0 -77 40 -114.5t123 -37.5z" />
    <glyph glyph-name="uni2080" unicode="&#x2080;" 
d="M219 -72q45 0 69 36.5t24 102.5v16q0 67 -24 103t-69 36t-69 -36.5t-24 -102.5v-16q0 -67 24 -103t69 -36zM219 -130q-74 0 -117.5 53t-43.5 144v16q0 91 43.5 144t117.5 53t117.5 -53t43.5 -144v-16q0 -91 -43.5 -144t-117.5 -53z" />
    <glyph glyph-name="uni2081" unicode="&#x2081;" 
d="M66 160l150 110h59v-333h91v-57h-263v57h107v260l-112 -82z" />
    <glyph glyph-name="uni2082" unicode="&#x2082;" 
d="M82 152v86q64 42 143 42q59 0 98 -29t39 -75q0 -26 -9.5 -45.5t-35.5 -39t-86 -49.5q-46 -23 -64.5 -44.5t-21.5 -58.5h162v59h55v-118h-288v28q0 66 28 107.5t97 75.5q45 22 63 33t25.5 21t7.5 28q0 22 -20 35t-55 13q-46 0 -83 -18v-51h-55z" />
    <glyph glyph-name="uni2083" unicode="&#x2083;" 
d="M79 154v91q65 35 131 35q65 0 105 -29.5t40 -78.5q0 -28 -18 -50t-50 -35q38 -14 58 -40t20 -61q0 -53 -43 -84.5t-114 -31.5q-73 0 -134 33v91h55v-53q35 -12 73 -12q96 0 96 61q0 31 -25.5 47.5t-70.5 16.5h-67v56h67q40 0 63 15t23 43q0 25 -22.5 39t-62.5 14
q-34 0 -69 -12v-55h-55z" />
    <glyph glyph-name="uni2084" unicode="&#x2084;" 
d="M216 -68h57v49h-226v51l228 238h56v-237h57v-52h-57v-49h57v-52h-172v52zM273 33v164l-158 -164h158z" />
    <glyph glyph-name="uni2085" unicode="&#x2085;" 
d="M292 159v52h-136l-7 -95q36 2 52 2q80 0 125 -32t45 -90q0 -57 -44.5 -91.5t-116.5 -34.5q-75 0 -139 33v92h55v-52q40 -15 79 -15q48 0 73.5 18t25.5 51q0 67 -117 67h-99l13 206h246v-111h-55z" />
    <glyph glyph-name="uni2086" unicode="&#x2086;" 
d="M305 162v53q-25 7 -55 7q-106 0 -122 -107q51 8 96 8q74 0 114.5 -31.5t40.5 -88.5q0 -59 -42.5 -96t-112.5 -37q-75 0 -119.5 49t-44.5 133v14q0 100 49.5 157t135.5 57q63 0 115 -23v-95h-55zM212 70q-30 0 -86 -8v-12q0 -57 26 -89.5t74 -32.5q42 0 65.5 20t23.5 53
q0 69 -103 69z" />
    <glyph glyph-name="uni2087" unicode="&#x2087;" 
d="M77 155v115h297v-53l-58 -78q-64 -88 -90.5 -143t-26.5 -109v-7h-67v5q0 44 12 81t41.5 84.5t79.5 112.5l38 48h-171v-56h-55z" />
    <glyph glyph-name="uni2088" unicode="&#x2088;" 
d="M218 -130q-73 0 -118 30.5t-45 79.5q0 32 20.5 59t57.5 41q-67 26 -67 89q0 49 42.5 80t111.5 31q65 0 107.5 -29.5t42.5 -75.5q0 -29 -17 -52t-47 -37q37 -15 57 -40.5t20 -59.5q0 -52 -45 -84t-120 -32zM192 64q-34 -11 -53 -31t-19 -45q0 -30 27.5 -48.5t71.5 -18.5
t71.5 18.5t27.5 49.5q0 52 -73 65zM131 167q0 -44 64 -56l54 -10q56 21 56 67q0 28 -24 44.5t-62 16.5q-39 0 -63.5 -17t-24.5 -45z" />
    <glyph glyph-name="uni2089" unicode="&#x2089;" 
d="M212 280q76 0 121 -49.5t45 -132.5v-14q0 -100 -46.5 -157t-128.5 -57q-73 0 -118 21v96h55v-53q29 -6 58 -6q97 0 111 107q-51 -8 -96 -8q-73 0 -113.5 31.5t-40.5 88.5q0 59 41.5 96t111.5 37zM225 80q41 0 87 8v12q0 57 -27 89.5t-75 32.5q-41 0 -64 -19.5t-23 -53.5
t26 -51.5t76 -17.5z" />
    <glyph glyph-name="uni2070" unicode="&#x2070;" 
d="M219 468q45 0 69 36.5t24 102.5v16q0 67 -24 103t-69 36t-69 -36.5t-24 -102.5v-16q0 -67 24 -103t69 -36zM219 410q-74 0 -117.5 53t-43.5 144v16q0 91 43.5 144t117.5 53t117.5 -53t43.5 -144v-16q0 -91 -43.5 -144t-117.5 -53z" />
    <glyph glyph-name="uni00B9" unicode="&#xb9;" 
d="M66 700l150 110h59v-333h91v-57h-263v57h107v260l-112 -82z" />
    <glyph glyph-name="uni00B2" unicode="&#xb2;" 
d="M82 692v86q64 42 143 42q59 0 98 -29t39 -75q0 -26 -9.5 -45.5t-35.5 -39t-86 -49.5q-46 -23 -64.5 -44.5t-21.5 -58.5h162v59h55v-118h-288v28q0 66 28 107.5t97 75.5q45 22 63 33t25.5 21t7.5 28q0 22 -20 35t-55 13q-46 0 -83 -18v-51h-55z" />
    <glyph glyph-name="uni00B3" unicode="&#xb3;" 
d="M79 694v91q65 35 131 35q65 0 105 -29.5t40 -78.5q0 -28 -18 -50t-50 -35q38 -14 58 -40t20 -61q0 -53 -43 -84.5t-114 -31.5q-73 0 -134 33v91h55v-53q35 -12 73 -12q96 0 96 61q0 31 -25.5 47.5t-70.5 16.5h-67v56h67q40 0 63 15t23 43q0 25 -22.5 39t-62.5 14
q-34 0 -69 -12v-55h-55z" />
    <glyph glyph-name="uni2074" unicode="&#x2074;" 
d="M216 472h57v49h-226v51l228 238h56v-237h57v-52h-57v-49h57v-52h-172v52zM273 573v164l-158 -164h158z" />
    <glyph glyph-name="uni2075" unicode="&#x2075;" 
d="M292 699v52h-136l-7 -95q36 2 52 2q80 0 125 -32t45 -90q0 -57 -44.5 -91.5t-116.5 -34.5q-75 0 -139 33v92h55v-52q40 -15 79 -15q48 0 73.5 18t25.5 51q0 67 -117 67h-99l13 206h246v-111h-55z" />
    <glyph glyph-name="uni2076" unicode="&#x2076;" 
d="M305 702v53q-25 7 -55 7q-106 0 -122 -107q51 8 96 8q74 0 114.5 -31.5t40.5 -88.5q0 -59 -42.5 -96t-112.5 -37q-75 0 -119.5 49t-44.5 133v14q0 100 49.5 157t135.5 57q63 0 115 -23v-95h-55zM212 610q-30 0 -86 -8v-12q0 -57 26 -89.5t74 -32.5q42 0 65.5 20t23.5 53
q0 69 -103 69z" />
    <glyph glyph-name="uni2077" unicode="&#x2077;" 
d="M77 695v115h297v-53l-58 -78q-64 -88 -90.5 -143t-26.5 -109v-7h-67v5q0 44 12 81t41.5 84.5t79.5 112.5l38 48h-171v-56h-55z" />
    <glyph glyph-name="uni2078" unicode="&#x2078;" 
d="M218 410q-73 0 -118 30.5t-45 79.5q0 32 20.5 59t57.5 41q-67 26 -67 89q0 49 42.5 80t111.5 31q65 0 107.5 -29.5t42.5 -75.5q0 -29 -17 -52t-47 -37q37 -15 57 -40.5t20 -59.5q0 -52 -45 -84t-120 -32zM192 604q-34 -11 -53 -31t-19 -45q0 -30 27.5 -48.5t71.5 -18.5
t71.5 18.5t27.5 49.5q0 52 -73 65zM131 707q0 -44 64 -56l54 -10q56 21 56 67q0 28 -24 44.5t-62 16.5q-39 0 -63.5 -17t-24.5 -45z" />
    <glyph glyph-name="uni2079" unicode="&#x2079;" 
d="M212 820q76 0 121 -49.5t45 -132.5v-14q0 -100 -46.5 -157t-128.5 -57q-73 0 -118 21v96h55v-53q29 -6 58 -6q97 0 111 107q-51 -8 -96 -8q-73 0 -113.5 31.5t-40.5 88.5q0 59 41.5 96t111.5 37zM225 620q41 0 87 8v12q0 57 -27 89.5t-75 32.5q-41 0 -64 -19.5t-23 -53.5
t26 -51.5t76 -17.5z" />
    <glyph glyph-name="zero.dnom" 
d="M219 48q45 0 69 36.5t24 102.5v16q0 67 -24 103t-69 36t-69 -36.5t-24 -102.5v-16q0 -67 24 -103t69 -36zM219 -10q-74 0 -117.5 53t-43.5 144v16q0 91 43.5 144t117.5 53t117.5 -53t43.5 -144v-16q0 -91 -43.5 -144t-117.5 -53z" />
    <glyph glyph-name="one.dnom" 
d="M66 280l150 110h59v-333h91v-57h-263v57h107v260l-112 -82z" />
    <glyph glyph-name="two.dnom" 
d="M82 272v86q64 42 143 42q59 0 98 -29t39 -75q0 -26 -9.5 -45.5t-35.5 -39t-86 -49.5q-46 -23 -64.5 -44.5t-21.5 -58.5h162v59h55v-118h-288v28q0 66 28 107.5t97 75.5q45 22 63 33t25.5 21t7.5 28q0 22 -20 35t-55 13q-46 0 -83 -18v-51h-55z" />
    <glyph glyph-name="three.dnom" 
d="M79 274v91q65 35 131 35q65 0 105 -29.5t40 -78.5q0 -28 -18 -50t-50 -35q38 -14 58 -40t20 -61q0 -53 -43 -84.5t-114 -31.5q-73 0 -134 33v91h55v-53q35 -12 73 -12q96 0 96 61q0 31 -25.5 47.5t-70.5 16.5h-67v56h67q40 0 63 15t23 43q0 25 -22.5 39t-62.5 14
q-34 0 -69 -12v-55h-55z" />
    <glyph glyph-name="four.dnom" 
d="M216 52h57v49h-226v51l228 238h56v-237h57v-52h-57v-49h57v-52h-172v52zM273 153v164l-158 -164h158z" />
    <glyph glyph-name="five.dnom" 
d="M292 279v52h-136l-7 -95q36 2 52 2q80 0 125 -32t45 -90q0 -57 -44.5 -91.5t-116.5 -34.5q-75 0 -139 33v92h55v-52q40 -15 79 -15q48 0 73.5 18t25.5 51q0 67 -117 67h-99l13 206h246v-111h-55z" />
    <glyph glyph-name="six.dnom" 
d="M305 282v53q-25 7 -55 7q-106 0 -122 -107q51 8 96 8q74 0 114.5 -31.5t40.5 -88.5q0 -59 -42.5 -96t-112.5 -37q-75 0 -119.5 49t-44.5 133v14q0 100 49.5 157t135.5 57q63 0 115 -23v-95h-55zM212 190q-30 0 -86 -8v-12q0 -57 26 -89.5t74 -32.5q42 0 65.5 20t23.5 53
q0 69 -103 69z" />
    <glyph glyph-name="seven.dnom" 
d="M77 275v115h297v-53l-58 -78q-64 -88 -90.5 -143t-26.5 -109v-7h-67v5q0 44 12 81t41.5 84.5t79.5 112.5l38 48h-171v-56h-55z" />
    <glyph glyph-name="eight.dnom" 
d="M218 -10q-73 0 -118 30.5t-45 79.5q0 32 20.5 59t57.5 41q-67 26 -67 89q0 49 42.5 80t111.5 31q65 0 107.5 -29.5t42.5 -75.5q0 -29 -17 -52t-47 -37q37 -15 57 -40.5t20 -59.5q0 -52 -45 -84t-120 -32zM192 184q-34 -11 -53 -31t-19 -45q0 -30 27.5 -48.5t71.5 -18.5
t71.5 18.5t27.5 49.5q0 52 -73 65zM131 287q0 -44 64 -56l54 -10q56 21 56 67q0 28 -24 44.5t-62 16.5q-39 0 -63.5 -17t-24.5 -45z" />
    <glyph glyph-name="nine.dnom" 
d="M212 400q76 0 121 -49.5t45 -132.5v-14q0 -100 -46.5 -157t-128.5 -57q-73 0 -118 21v96h55v-53q29 -6 58 -6q97 0 111 107q-51 -8 -96 -8q-73 0 -113.5 31.5t-40.5 88.5q0 59 41.5 96t111.5 37zM225 200q41 0 87 8v12q0 57 -27 89.5t-75 32.5q-41 0 -64 -19.5t-23 -53.5
t26 -51.5t76 -17.5z" />
    <glyph glyph-name="zero.numr" 
d="M219 348q45 0 69 36.5t24 102.5v16q0 67 -24 103t-69 36t-69 -36.5t-24 -102.5v-16q0 -67 24 -103t69 -36zM219 290q-74 0 -117.5 53t-43.5 144v16q0 91 43.5 144t117.5 53t117.5 -53t43.5 -144v-16q0 -91 -43.5 -144t-117.5 -53z" />
    <glyph glyph-name="one.numr" 
d="M66 580l150 110h59v-333h91v-57h-263v57h107v260l-112 -82z" />
    <glyph glyph-name="two.numr" 
d="M82 572v86q64 42 143 42q59 0 98 -29t39 -75q0 -26 -9.5 -45.5t-35.5 -39t-86 -49.5q-46 -23 -64.5 -44.5t-21.5 -58.5h162v59h55v-118h-288v28q0 66 28 107.5t97 75.5q45 22 63 33t25.5 21t7.5 28q0 22 -20 35t-55 13q-46 0 -83 -18v-51h-55z" />
    <glyph glyph-name="three.numr" 
d="M79 574v91q65 35 131 35q65 0 105 -29.5t40 -78.5q0 -28 -18 -50t-50 -35q38 -14 58 -40t20 -61q0 -53 -43 -84.5t-114 -31.5q-73 0 -134 33v91h55v-53q35 -12 73 -12q96 0 96 61q0 31 -25.5 47.5t-70.5 16.5h-67v56h67q40 0 63 15t23 43q0 25 -22.5 39t-62.5 14
q-34 0 -69 -12v-55h-55z" />
    <glyph glyph-name="four.numr" 
d="M216 352h57v49h-226v51l228 238h56v-237h57v-52h-57v-49h57v-52h-172v52zM273 453v164l-158 -164h158z" />
    <glyph glyph-name="five.numr" 
d="M292 579v52h-136l-7 -95q36 2 52 2q80 0 125 -32t45 -90q0 -57 -44.5 -91.5t-116.5 -34.5q-75 0 -139 33v92h55v-52q40 -15 79 -15q48 0 73.5 18t25.5 51q0 67 -117 67h-99l13 206h246v-111h-55z" />
    <glyph glyph-name="six.numr" 
d="M305 582v53q-25 7 -55 7q-106 0 -122 -107q51 8 96 8q74 0 114.5 -31.5t40.5 -88.5q0 -59 -42.5 -96t-112.5 -37q-75 0 -119.5 49t-44.5 133v14q0 100 49.5 157t135.5 57q63 0 115 -23v-95h-55zM212 490q-30 0 -86 -8v-12q0 -57 26 -89.5t74 -32.5q42 0 65.5 20t23.5 53
q0 69 -103 69z" />
    <glyph glyph-name="seven.numr" 
d="M77 575v115h297v-53l-58 -78q-64 -88 -90.5 -143t-26.5 -109v-7h-67v5q0 44 12 81t41.5 84.5t79.5 112.5l38 48h-171v-56h-55z" />
    <glyph glyph-name="eight.numr" 
d="M218 290q-73 0 -118 30.5t-45 79.5q0 32 20.5 59t57.5 41q-67 26 -67 89q0 49 42.5 80t111.5 31q65 0 107.5 -29.5t42.5 -75.5q0 -29 -17 -52t-47 -37q37 -15 57 -40.5t20 -59.5q0 -52 -45 -84t-120 -32zM192 484q-34 -11 -53 -31t-19 -45q0 -30 27.5 -48.5t71.5 -18.5
t71.5 18.5t27.5 49.5q0 52 -73 65zM131 587q0 -44 64 -56l54 -10q56 21 56 67q0 28 -24 44.5t-62 16.5q-39 0 -63.5 -17t-24.5 -45z" />
    <glyph glyph-name="nine.numr" 
d="M212 700q76 0 121 -49.5t45 -132.5v-14q0 -100 -46.5 -157t-128.5 -57q-73 0 -118 21v96h55v-53q29 -6 58 -6q97 0 111 107q-51 -8 -96 -8q-73 0 -113.5 31.5t-40.5 88.5q0 59 41.5 96t111.5 37zM225 500q41 0 87 8v12q0 57 -27 89.5t-75 32.5q-41 0 -64 -19.5t-23 -53.5
t26 -51.5t76 -17.5z" />
    <glyph glyph-name="fraction" unicode="&#x2044;" horiz-adv-x="106" 
d="M-182 0l397 690h73l-397 -690h-73z" />
    <glyph glyph-name="percent" unicode="%" horiz-adv-x="940" 
d="M235 0l397 690h73l-397 -690h-73zM721 48q45 0 69 36.5t24 102.5v16q0 67 -24 103t-69 36t-69 -36.5t-24 -102.5v-16q0 -67 24 -103t69 -36zM721 -10q-74 0 -117.5 53t-43.5 144v16q0 91 43.5 144t117.5 53t117.5 -53t43.5 -144v-16q0 -91 -43.5 -144t-117.5 -53z
M219 348q45 0 69 36.5t24 102.5v16q0 67 -24 103t-69 36t-69 -36.5t-24 -102.5v-16q0 -67 24 -103t69 -36zM219 290q-74 0 -117.5 53t-43.5 144v16q0 91 43.5 144t117.5 53t117.5 -53t43.5 -144v-16q0 -91 -43.5 -144t-117.5 -53z" />
    <glyph glyph-name="onehalf" unicode="&#xbd;" horiz-adv-x="940" 
d="M246 0l397 690h73l-397 -690h-73zM584 272v86q64 42 143 42q59 0 98 -29t39 -75q0 -26 -9.5 -45.5t-35.5 -39t-86 -49.5q-46 -23 -64.5 -44.5t-21.5 -58.5h162v59h55v-118h-288v28q0 66 28 107.5t97 75.5q45 22 63 33t25.5 21t7.5 28q0 22 -20 35t-55 13q-46 0 -83 -18
v-51h-55zM66 580l150 110h59v-333h91v-57h-263v57h107v260l-112 -82z" />
    <glyph glyph-name="onequarter" unicode="&#xbc;" horiz-adv-x="940" 
d="M288 0l397 690h73l-397 -690h-73zM718 52h57v49h-226v51l228 238h56v-237h57v-52h-57v-49h57v-52h-172v52zM775 153v164l-158 -164h158zM66 580l150 110h59v-333h91v-57h-263v57h107v260l-112 -82z" />
    <glyph glyph-name="threequarters" unicode="&#xbe;" horiz-adv-x="940" 
d="M264 0l397 690h73l-397 -690h-73zM718 52h57v49h-226v51l228 238h56v-237h57v-52h-57v-49h57v-52h-172v52zM775 153v164l-158 -164h158zM79 574v91q65 35 131 35q65 0 105 -29.5t40 -78.5q0 -28 -18 -50t-50 -35q38 -14 58 -40t20 -61q0 -53 -43 -84.5t-114 -31.5
q-73 0 -134 33v91h55v-53q35 -12 73 -12q96 0 96 61q0 31 -25.5 47.5t-70.5 16.5h-67v56h67q40 0 63 15t23 43q0 25 -22.5 39t-62.5 14q-34 0 -69 -12v-55h-55z" />
    <glyph glyph-name="dollar" unicode="$" horiz-adv-x="600" 
d="M268 -113v104q-55 2 -110 15t-92 34v170h67v-127q64 -25 135 -28v273q-109 30 -151.5 71.5t-42.5 114.5q0 75 53 125t141 59v94h67v-93q95 -8 171 -44v-154h-67v109q-51 18 -104 23v-250q109 -31 154 -75.5t45 -119.5q0 -80 -53 -131.5t-146 -63.5v-106h-67zM461 184
q0 47 -28 75t-98 50v-251q62 9 94 41.5t32 84.5zM146 520q0 -45 26.5 -71t95.5 -47v230q-59 -7 -90.5 -36t-31.5 -76z" />
    <glyph glyph-name="cent" unicode="&#xa2;" horiz-adv-x="600" 
d="M291 -113v108q-87 17 -139.5 87.5t-52.5 171.5q0 100 52.5 170.5t139.5 88.5v109h67v-103q82 -3 147 -44v-124h-67v85q-34 17 -80 18v-399q68 1 129 34l21 -54q-63 -42 -150 -45v-103h-67zM171 254q0 -69 32 -119.5t88 -70.5v381q-37 -12 -64 -39.5t-41.5 -66
t-14.5 -85.5z" />
    <glyph glyph-name="sterling" unicode="&#xa3;" horiz-adv-x="600" 
d="M436 313h-189q1 -6 1 -12v-13q0 -65 -22.5 -125.5t-58.5 -94.5h305v95h67v-163h-456v64q43 32 69.5 91.5t26.5 126.5q0 18 -1 31h-84v66h70q-19 52 -25.5 79.5t-6.5 57.5q0 83 59 133.5t155 50.5q97 0 177 -45v-158h-67v115q-52 21 -103 21q-69 0 -108 -32.5t-39 -90.5
q0 -25 7 -54.5t23 -76.5h200v-66z" />
    <glyph glyph-name="yen" unicode="&#xa5;" horiz-adv-x="600" 
d="M382 690h210v-67h-63l-158 -283h146v-66h-179v-85h179v-66h-179v-123h-76v123h-179v66h179v85h-179v66h146l-158 283h-62v67h213v-67h-68l148 -279l147 279h-67v67z" />
    <glyph glyph-name="Euro" unicode="&#x20ac;" horiz-adv-x="600" 
d="M397 -10q-107 0 -183.5 65.5t-103.5 179.5h-91l11 66h70q-2 19 -2 45q0 21 2 41h-81l11 66h80q27 114 103.5 180.5t183.5 66.5q50 0 98 -14t82 -39v-153h-67v113q-53 24 -106 24q-81 0 -137 -46.5t-77 -131.5h283l-11 -66h-283q-2 -24 -2 -41q0 -29 2 -45h271l-11 -66
h-249q22 -84 78 -130.5t136 -46.5q65 0 112 22v113h67v-155q-84 -48 -186 -48z" />
    <glyph glyph-name="uni20BA" unicode="&#x20ba;" horiz-adv-x="600" 
d="M199 253v-186h51q119 0 174 52.5t55 165.5h76q0 -148 -73.5 -216.5t-231.5 -68.5h-215v67h88v150l-91 -44v70l91 44v86l-91 -44v70l91 44v247h76v-211l186 90v-70l-186 -90v-86l186 90v-70z" />
    <glyph glyph-name="uni20BD" unicode="&#x20bd;" horiz-adv-x="600" 
d="M135 0v120h-114v66h114v91h-114v66h114v280h-78v67h261q111 0 171.5 -54t60.5 -150q0 -97 -61 -153t-171 -56h-107v-91h205v-66h-205v-120h-76zM211 343h106q76 0 116 36.5t40 106.5q0 67 -40 103t-116 36h-106v-282z" />
    <glyph glyph-name="dollarinferior" 
d="M306 159v57q-37 12 -64 13v-127q75 -15 106 -42t31 -76q0 -48 -35.5 -77t-101.5 -35v-62h-49v61q-83 4 -134 34v99h52v-67q41 -14 82 -17v139q-71 15 -100 40.5t-29 71.5q0 45 34.5 73.5t94.5 34.5v61h49v-61q64 -5 116 -30v-90h-52zM321 -18q0 27 -17 40.5t-62 24.5
v-125q38 5 58.5 20.5t20.5 39.5zM122 174q0 -25 15 -37.5t56 -22.5v114q-71 -8 -71 -54z" />
    <glyph glyph-name="centinferior" 
d="M300 54v62q-24 8 -49 10v-206q50 2 85 22l17 -42q-20 -13 -46.5 -20.5t-55.5 -9.5v-60h-49v64q-54 11 -85.5 51.5t-31.5 97.5q0 56 31 96t86 52v64h49v-60q55 -3 97 -28v-93h-48zM142 23q0 -75 60 -97v193q-29 -10 -44.5 -34.5t-15.5 -61.5z" />
    <glyph glyph-name="percentinferior" horiz-adv-x="633" 
d="M162 -120l249 390h60l-249 -390h-60zM165 87q54 0 54 70v9q0 70 -54 70t-54 -70v-9q0 -70 54 -70zM165 43q-49 0 -78.5 31t-29.5 83v9q0 52 29.5 83t78.5 31t78.5 -31t29.5 -83v-9q0 -52 -29.5 -83t-78.5 -31zM468 -86q54 0 54 70v9q0 70 -54 70t-54 -70v-9q0 -70 54 -70
zM468 -130q-49 0 -78.5 31t-29.5 83v9q0 52 29.5 83t78.5 31t78.5 -31t29.5 -83v-9q0 -52 -29.5 -83t-78.5 -31z" />
    <glyph glyph-name="numbersigninferior" horiz-adv-x="404" 
d="M70 -120l16 106h-63v46h70l13 86h-69v46h76l16 106h52l-16 -106h101l16 106h52l-16 -106h63v-46h-70l-13 -86h69v-46h-76l-16 -106h-52l16 106h-101l-16 -106h-52zM145 32h101l13 86h-101z" />
    <glyph glyph-name="dollarsuperior" 
d="M306 699v57q-37 12 -64 13v-127q75 -15 106 -42t31 -76q0 -48 -35.5 -77t-101.5 -35v-62h-49v61q-83 4 -134 34v99h52v-67q41 -14 82 -17v139q-71 15 -100 40.5t-29 71.5q0 45 34.5 73.5t94.5 34.5v61h49v-61q64 -5 116 -30v-90h-52zM321 522q0 27 -17 40.5t-62 24.5
v-125q38 5 58.5 20.5t20.5 39.5zM122 714q0 -25 15 -37.5t56 -22.5v114q-71 -8 -71 -54z" />
    <glyph glyph-name="centsuperior" 
d="M300 594v62q-24 8 -49 10v-206q50 2 85 22l17 -42q-20 -13 -46.5 -20.5t-55.5 -9.5v-60h-49v64q-54 11 -85.5 51.5t-31.5 97.5q0 56 31 96t86 52v64h49v-60q55 -3 97 -28v-93h-48zM142 563q0 -75 60 -97v193q-29 -10 -44.5 -34.5t-15.5 -61.5z" />
    <glyph glyph-name="percentsuperior" horiz-adv-x="633" 
d="M162 420l249 390h60l-249 -390h-60zM165 627q54 0 54 70v9q0 70 -54 70t-54 -70v-9q0 -70 54 -70zM165 583q-49 0 -78.5 31t-29.5 83v9q0 52 29.5 83t78.5 31t78.5 -31t29.5 -83v-9q0 -52 -29.5 -83t-78.5 -31zM468 454q54 0 54 70v9q0 70 -54 70t-54 -70v-9
q0 -70 54 -70zM468 410q-49 0 -78.5 31t-29.5 83v9q0 52 29.5 83t78.5 31t78.5 -31t29.5 -83v-9q0 -52 -29.5 -83t-78.5 -31z" />
    <glyph glyph-name="numbersignsuperior" horiz-adv-x="404" 
d="M70 420l16 106h-63v46h70l13 86h-69v46h76l16 106h52l-16 -106h101l16 106h52l-16 -106h63v-46h-70l-13 -86h69v-46h-76l-16 -106h-52l16 106h-101l-16 -106h-52zM145 572h101l13 86h-101z" />
    <glyph glyph-name="dollardnom" 
d="M306 279v57q-37 12 -64 13v-127q75 -15 106 -42t31 -76q0 -48 -35.5 -77t-101.5 -35v-62h-49v61q-83 4 -134 34v99h52v-67q41 -14 82 -17v139q-71 15 -100 40.5t-29 71.5q0 45 34.5 73.5t94.5 34.5v61h49v-61q64 -5 116 -30v-90h-52zM321 102q0 27 -17 40.5t-62 24.5
v-125q38 5 58.5 20.5t20.5 39.5zM122 294q0 -25 15 -37.5t56 -22.5v114q-71 -8 -71 -54z" />
    <glyph glyph-name="centdnom" 
d="M300 174v62q-24 8 -49 10v-206q50 2 85 22l17 -42q-20 -13 -46.5 -20.5t-55.5 -9.5v-60h-49v64q-54 11 -85.5 51.5t-31.5 97.5q0 56 31 96t86 52v64h49v-60q55 -3 97 -28v-93h-48zM142 143q0 -75 60 -97v193q-29 -10 -44.5 -34.5t-15.5 -61.5z" />
    <glyph glyph-name="percentdnom" horiz-adv-x="633" 
d="M162 0l249 390h60l-249 -390h-60zM165 207q54 0 54 70v9q0 70 -54 70t-54 -70v-9q0 -70 54 -70zM165 163q-49 0 -78.5 31t-29.5 83v9q0 52 29.5 83t78.5 31t78.5 -31t29.5 -83v-9q0 -52 -29.5 -83t-78.5 -31zM468 34q54 0 54 70v9q0 70 -54 70t-54 -70v-9q0 -70 54 -70z
M468 -10q-49 0 -78.5 31t-29.5 83v9q0 52 29.5 83t78.5 31t78.5 -31t29.5 -83v-9q0 -52 -29.5 -83t-78.5 -31z" />
    <glyph glyph-name="numbersigndnom" horiz-adv-x="404" 
d="M70 0l16 106h-63v46h70l13 86h-69v46h76l16 106h52l-16 -106h101l16 106h52l-16 -106h63v-46h-70l-13 -86h69v-46h-76l-16 -106h-52l16 106h-101l-16 -106h-52zM145 152h101l13 86h-101z" />
    <glyph glyph-name="dollarnumr" 
d="M306 579v57q-37 12 -64 13v-127q75 -15 106 -42t31 -76q0 -48 -35.5 -77t-101.5 -35v-62h-49v61q-83 4 -134 34v99h52v-67q41 -14 82 -17v139q-71 15 -100 40.5t-29 71.5q0 45 34.5 73.5t94.5 34.5v61h49v-61q64 -5 116 -30v-90h-52zM321 402q0 27 -17 40.5t-62 24.5
v-125q38 5 58.5 20.5t20.5 39.5zM122 594q0 -25 15 -37.5t56 -22.5v114q-71 -8 -71 -54z" />
    <glyph glyph-name="centnumr" 
d="M300 474v62q-24 8 -49 10v-206q50 2 85 22l17 -42q-20 -13 -46.5 -20.5t-55.5 -9.5v-60h-49v64q-54 11 -85.5 51.5t-31.5 97.5q0 56 31 96t86 52v64h49v-60q55 -3 97 -28v-93h-48zM142 443q0 -75 60 -97v193q-29 -10 -44.5 -34.5t-15.5 -61.5z" />
    <glyph glyph-name="percentnumr" horiz-adv-x="633" 
d="M162 300l249 390h60l-249 -390h-60zM165 507q54 0 54 70v9q0 70 -54 70t-54 -70v-9q0 -70 54 -70zM165 463q-49 0 -78.5 31t-29.5 83v9q0 52 29.5 83t78.5 31t78.5 -31t29.5 -83v-9q0 -52 -29.5 -83t-78.5 -31zM468 334q54 0 54 70v9q0 70 -54 70t-54 -70v-9
q0 -70 54 -70zM468 290q-49 0 -78.5 31t-29.5 83v9q0 52 29.5 83t78.5 31t78.5 -31t29.5 -83v-9q0 -52 -29.5 -83t-78.5 -31z" />
    <glyph glyph-name="numbersignnumr" horiz-adv-x="404" 
d="M70 300l16 106h-63v46h70l13 86h-69v46h76l16 106h52l-16 -106h101l16 106h52l-16 -106h63v-46h-70l-13 -86h69v-46h-76l-16 -106h-52l16 106h-101l-16 -106h-52zM145 452h101l13 86h-101z" />
    <glyph glyph-name="asciicircum" unicode="^" horiz-adv-x="600" 
d="M449 315l-150 304l-150 -304h-78l194 375h70l194 -375h-80z" />
    <glyph glyph-name="plus" unicode="+" horiz-adv-x="600" 
d="M266 109v202h-193v66h193v203h68v-203h193v-66h-193v-202h-68z" />
    <glyph glyph-name="minus" unicode="&#x2212;" horiz-adv-x="600" 
d="M73 311v66h454v-66h-454z" />
    <glyph glyph-name="equal" unicode="=" horiz-adv-x="600" 
d="M73 200v66h454v-66h-454zM73 424v66h454v-66h-454z" />
    <glyph glyph-name="divide" unicode="&#xf7;" horiz-adv-x="600" 
d="M300 471q-21 0 -35 14t-14 34t14 34t35 14t35 -14t14 -34t-14 -34t-35 -14zM73 311v66h454v-66h-454zM300 217q21 0 35 -14t14 -34t-14 -34t-35 -14t-35 14t-14 34t14 34t35 14z" />
    <glyph glyph-name="less" unicode="&#x3c;" horiz-adv-x="600" 
d="M83 379l434 179v-80l-357 -132l357 -132v-79l-434 179v65z" />
    <glyph glyph-name="greater" unicode="&#x3e;" horiz-adv-x="600" 
d="M517 314l-434 -179v80l357 132l-357 132v79l434 -179v-65z" />
    <glyph glyph-name="asciitilde" unicode="~" horiz-adv-x="600" 
d="M425 236q-34 0 -65 17t-77 62q-49 47 -67 58t-36 11q-59 0 -59 -105v-37h-67v41q0 82 32 126t89 44q34 0 65 -17t77 -62q49 -47 67 -58t36 -11q59 0 59 105v37h67v-41q0 -82 -32 -126t-89 -44z" />
    <glyph glyph-name="multiply" unicode="&#xd7;" horiz-adv-x="600" 
d="M300 299l-162 -164l-46 46l162 163l-162 164l46 46l162 -164l162 164l46 -46l-162 -164l162 -163l-46 -46z" />
    <glyph glyph-name="underscore" unicode="_" horiz-adv-x="500" 
d="M0 -82h500v-58h-500v58z" />
    <glyph glyph-name="section" unicode="&#xa7;" horiz-adv-x="566" 
d="M79 35h65v-76q55 -20 126 -20q61 0 93 22t32 64q0 34 -26 54t-86 34l-32 7q-97 23 -141.5 62t-44.5 103q0 55 30 96.5t84 60.5q-43 20 -63.5 49t-20.5 71q0 69 50 108.5t138 39.5q96 0 174 -34v-120h-65v73q-53 16 -108 16q-54 0 -83.5 -20t-29.5 -58q0 -33 27.5 -54.5
t85.5 -33.5l32 -7q94 -21 139.5 -61t45.5 -103q0 -56 -31 -97.5t-85 -60.5q86 -41 86 -119q0 -74 -54 -115.5t-149 -41.5q-109 0 -189 41v120zM253 418q-54 -12 -84.5 -44.5t-30.5 -78.5q0 -43 32 -70t100 -41l43 -9q53 12 84 44.5t31 78.5q0 43 -31.5 69t-99.5 41z" />
    <glyph glyph-name="degree" unicode="&#xb0;" horiz-adv-x="358" 
d="M266 552q0 41 -24 66t-63 25t-63 -25t-24 -66t24 -66t63 -25t63 25t24 66zM328 552q0 -65 -42 -106.5t-107 -41.5t-107 41.5t-42 106.5t42 106.5t107 41.5t107 -41.5t42 -106.5z" />
    <glyph glyph-name="paragraph" unicode="&#xb6;" horiz-adv-x="604" 
d="M280 -110v404q-109 0 -170.5 54t-61.5 149t61.5 149t170.5 54h291v-60h-86v-750h-59v750h-85v-750h-61z" />
    <glyph glyph-name="numbersign" unicode="#" horiz-adv-x="600" 
d="M57 492h113l27 198h63l-27 -198h174l27 198h63l-27 -198h100v-62h-108l-23 -170h104v-62h-113l-27 -198h-63l27 198h-174l-27 -198h-63l27 198h-100v62h108l23 170h-104v62zM201 260h175l23 170h-175z" />
    <glyph glyph-name="bar" unicode="|" horiz-adv-x="235" 
d="M81 730h73v-946h-73v946z" />
    <glyph glyph-name="dagger" unicode="&#x2020;" horiz-adv-x="491" 
d="M49 495h160v235h73v-235h160v-65h-160v-546h-73v546h-160v65z" />
    <glyph glyph-name="daggerdbl" unicode="&#x2021;" horiz-adv-x="491" 
d="M442 119h-160v-235h-73v235h-160v65h160v246h-160v65h160v235h73v-235h160v-65h-160v-246h160v-65z" />
    <glyph glyph-name="logicalnot" unicode="&#xac;" horiz-adv-x="600" 
d="M449 109v202h-386v66h454v-268h-68z" />
    <glyph glyph-name="ampersand" unicode="&#x26;" horiz-adv-x="721" 
d="M55 170q0 124 160 209q-53 56 -72 92.5t-19 80.5q0 70 52 114t134 44q79 0 127.5 -41t48.5 -108q0 -102 -162 -191l154 -159q32 52 46 79l44 85h74l-55 -103q-26 -48 -62 -104l166 -168h-99l-109 111q-94 -121 -223 -121q-93 0 -149 49t-56 131zM268 54q50 0 90.5 24.5
t77.5 76.5l-179 182q-65 -39 -95 -78t-30 -84q0 -55 37 -88t99 -33zM197 554q0 -23 6.5 -40.5t23.5 -39.5t54 -61q69 39 100.5 74t31.5 72q0 39 -28.5 64t-74.5 25q-51 0 -82 -26t-31 -68z" />
    <glyph glyph-name="asterisk" unicode="*" horiz-adv-x="424" 
d="M212 484l-76 -124l-57 37l90 113l-133 35l22 67l128 -54l-10 141h72l-10 -141l128 54l22 -67l-133 -35l90 -113l-57 -37z" />
    <glyph glyph-name="hyphen" unicode="-" horiz-adv-x="401" 
d="M49 307h303v-65h-303v65z" />
    <glyph glyph-name="endash" unicode="&#x2013;" horiz-adv-x="500" 
d="M0 305h500v-61h-500v61z" />
    <glyph glyph-name="emdash" unicode="&#x2014;" horiz-adv-x="1000" 
d="M0 305h1000v-61h-1000v61z" />
    <glyph glyph-name="parenleft" unicode="(" horiz-adv-x="342" 
d="M231 -164q-70 83 -111 203t-41 244t41 244t111 203h79q-72 -91 -112 -208.5t-40 -238.5t40 -238.5t112 -208.5h-79z" />
    <glyph glyph-name="parenright" unicode=")" horiz-adv-x="342" 
d="M111 730q70 -83 111 -203t41 -244t-41 -244t-111 -203h-79q72 91 112 208.5t40 238.5t-40 238.5t-112 208.5h79z" />
    <glyph glyph-name="slash" unicode="/" horiz-adv-x="482" 
d="M397 730h76l-388 -894h-76z" />
    <glyph glyph-name="backslash" unicode="\" horiz-adv-x="482" 
d="M473 -164h-76l-388 894h76z" />
    <glyph glyph-name="bracketleft" unicode="[" horiz-adv-x="357" 
d="M81 -164v894h237v-65h-162v-764h162v-65h-237z" />
    <glyph glyph-name="bracketright" unicode="]" horiz-adv-x="357" 
d="M276 730v-894h-237v65h162v764h-162v65h237z" />
    <glyph glyph-name="braceleft" unicode="{" horiz-adv-x="383" 
d="M38 315h22q43 0 62 17t19 54q0 27 -10 99q-11 73 -11 103q0 69 37.5 106.5t108.5 37.5q37 0 89 -9v-64q-40 7 -70 7q-46 0 -68 -22t-22 -68q0 -20 11 -98q10 -64 10 -100q0 -77 -71 -95q71 -18 71 -95q0 -36 -10 -100q-11 -78 -11 -98q0 -46 22 -68t68 -22q30 0 70 7v-64
q-52 -9 -89 -9q-71 0 -108.5 37.5t-37.5 106.5q0 30 11 103q10 72 10 99q0 37 -19 54t-62 17h-22v64z" />
    <glyph glyph-name="braceright" unicode="}" horiz-adv-x="383" 
d="M345 251h-22q-43 0 -62 -17t-19 -54q0 -27 10 -99q11 -73 11 -103q0 -69 -37.5 -106.5t-108.5 -37.5q-37 0 -89 9v64q40 -7 70 -7q46 0 68 22t22 68q0 20 -11 98q-10 64 -10 100q0 77 71 95q-71 18 -71 95q0 36 10 100q11 78 11 98q0 46 -22 68t-68 22q-30 0 -70 -7v64
q52 9 89 9q71 0 108.5 -37.5t37.5 -106.5q0 -30 -11 -103q-10 -72 -10 -99q0 -37 19 -54t62 -17h22v-64z" />
    <glyph glyph-name="bullet" unicode="&#x2022;" horiz-adv-x="276" 
d="M138 196q-40 0 -67 26.5t-27 65.5t27 65.5t67 26.5t67 -26.5t27 -65.5t-27 -65.5t-67 -26.5z" />
    <glyph glyph-name="guilsinglleft" unicode="&#x2039;" horiz-adv-x="285" 
d="M110 280l133 -178h-76l-133 178l133 178h76z" />
    <glyph glyph-name="guilsinglright" unicode="&#x203a;" horiz-adv-x="285" 
d="M175 280l-133 178h76l133 -178l-133 -178h-76z" />
    <glyph glyph-name="guillemotleft" unicode="&#xab;" horiz-adv-x="457" 
d="M110 280l133 -178h-76l-133 178l133 178h76zM282 280l133 -178h-76l-133 178l133 178h76z" />
    <glyph glyph-name="guillemotright" unicode="&#xbb;" horiz-adv-x="457" 
d="M175 280l-133 178h76l133 -178l-133 -178h-76zM347 280l-133 178h76l133 -178l-133 -178h-76z" />
    <glyph glyph-name="at" unicode="@" horiz-adv-x="1013" 
d="M705 -23q-53 0 -85 26.5t-36 72.5q-33 -32 -74.5 -49t-82.5 -17q-64 0 -100.5 43t-36.5 115q0 76 35.5 141t92.5 100t125 35q35 0 66 -11.5t53 -33.5l16 36h60l-79 -283q-8 -28 -8 -52q0 -31 14 -46t45 -15q51 0 92 34.5t63 92t22 126.5q0 97 -41 168t-114.5 108
t-170.5 37q-126 0 -226 -59t-154.5 -156.5t-54.5 -214.5q0 -106 44 -182.5t124 -116.5t188 -40q110 0 212 42l14 -58q-98 -46 -229 -46q-132 0 -227 50t-145 140t-50 210q0 143 69.5 256.5t184.5 175.5t251 62q120 0 209.5 -48.5t137 -133.5t47.5 -194q0 -92 -34 -164
t-91 -111.5t-126 -39.5zM448 71q32 0 69 18.5t67 49.5l59 208q-19 16 -46.5 26t-53.5 10q-51 0 -92 -28.5t-64 -75.5t-23 -103q0 -50 22 -77.5t62 -27.5z" />
    <glyph glyph-name="periodcentered" unicode="&#xb7;" horiz-adv-x="212" 
d="M106 236q-23 0 -38.5 15t-15.5 37t15.5 37t38.5 15t38.5 -15t15.5 -37t-15.5 -37t-38.5 -15z" />
    <glyph glyph-name="A" unicode="A" horiz-adv-x="749" 
d="M508 67h65l-50 140h-299l-50 -140h67v-67h-222v67h74l216 566h-65v67h172l241 -633h73v-67h-222v67zM250 279h247l-124 340z" />
    <glyph glyph-name="B" unicode="B" horiz-adv-x="661" 
d="M41 700h330q107 0 164.5 -48t57.5 -138q0 -54 -28 -96t-76 -60q59 -15 91.5 -58.5t32.5 -109.5q0 -86 -60.5 -138t-161.5 -52h-350v67h78v566h-78v67zM198 316v-243h193q67 0 104 31.5t37 89.5q0 122 -158 122h-176zM198 627v-238h173q67 0 104 31.5t37 89.5
q0 56 -36 86.5t-105 30.5h-173z" />
    <glyph glyph-name="C" unicode="C" horiz-adv-x="654" 
d="M387 -10q-100 0 -176 47t-116.5 128.5t-40.5 184.5q0 107 44.5 189.5t121 126.5t174.5 44q55 0 106 -12t90 -33v-171h-69v120q-59 22 -127 22q-79 0 -138 -37t-90 -101.5t-31 -147.5q0 -87 33.5 -152t92 -99.5t133.5 -34.5q70 0 134 24v118h69v-167q-86 -49 -210 -49z
" />
    <glyph glyph-name="D" unicode="D" horiz-adv-x="737" 
d="M683 350q0 -109 -43 -188t-120.5 -120.5t-181.5 -41.5h-297v67h78v566h-78v67h297q107 0 185 -43.5t119 -122.5t41 -184zM602 350q0 131 -70 204t-195 73h-139v-554h139q125 0 195 73t70 204z" />
    <glyph glyph-name="E" unicode="E" horiz-adv-x="596" 
d="M41 700h499v-171h-69v98h-273v-237h284v-73h-284v-244h283v98h69v-171h-509v67h78v566h-78v67z" />
    <glyph glyph-name="F" unicode="F" horiz-adv-x="572" 
d="M531 529h-69v98h-264v-252h275v-73h-275v-235h88v-67h-245v67h78v566h-78v67h490v-171z" />
    <glyph glyph-name="G" unicode="G" horiz-adv-x="727" 
d="M612 500h-69v112q-62 24 -142 24t-140.5 -37t-93 -101.5t-32.5 -147.5q0 -87 33 -152t92 -99.5t136 -34.5q49 0 84 6.5t65 20.5v213h-176v72h328v-72h-73v-256q-95 -58 -233 -58q-103 0 -179 46.5t-117 128t-41 185.5q0 106 45.5 188.5t122.5 127t172 44.5q128 0 218 -45
v-165z" />
    <glyph glyph-name="H" unicode="H" horiz-adv-x="770" 
d="M494 67h78v250h-374v-250h78v-67h-235v67h78v566h-78v67h235v-67h-78v-243h374v243h-78v67h235v-67h-78v-566h78v-67h-235v67z" />
    <glyph glyph-name="I" unicode="I" horiz-adv-x="317" 
d="M41 67h78v566h-78v67h235v-67h-78v-566h78v-67h-235v67z" />
    <glyph glyph-name="J" unicode="J" horiz-adv-x="440" 
d="M142 700h222v-480q0 -230 -196 -230q-81 0 -142 35l20 66q56 -28 113 -28q65 0 95.5 39.5t30.5 124.5v406h-143v67z" />
    <glyph glyph-name="K" unicode="K" horiz-adv-x="699" 
d="M432 67h67l-189 289l-112 -119v-170h78v-67h-235v67h78v566h-78v67h235v-67h-78v-300l282 300h-68v67h238v-67h-72l-211 -223l226 -343h77v-67h-238v67z" />
    <glyph glyph-name="L" unicode="L" horiz-adv-x="564" 
d="M41 700h235v-67h-78v-560h266v100h69v-173h-492v67h78v566h-78v67z" />
    <glyph glyph-name="M" unicode="M" horiz-adv-x="900" 
d="M41 700h157l253 -491l251 491h157v-67h-78v-566h78v-67h-235v67h78v480l-218 -424h-68l-218 420v-476h78v-67h-235v67h78v566h-78v67z" />
    <glyph glyph-name="N" unicode="N" horiz-adv-x="756" 
d="M725 633h-78v-633h-78l-371 566v-499h83v-67h-240v67h78v566h-78v67h156l371 -566v499h-83v67h240v-67z" />
    <glyph glyph-name="O" unicode="O" horiz-adv-x="756" 
d="M378 64q73 0 128.5 37.5t85 102t29.5 146.5q0 86 -32 151t-86.5 100t-124.5 35q-73 0 -128.5 -37.5t-85 -102t-29.5 -146.5q0 -86 32 -151t86.5 -100t124.5 -35zM378 -10q-96 0 -170 48t-114 129.5t-40 182.5q0 106 43 188.5t116.5 127t164.5 44.5q96 0 170 -48
t114 -129.5t40 -182.5q0 -106 -43 -188.5t-116.5 -127t-164.5 -44.5z" />
    <glyph glyph-name="P" unicode="P" horiz-adv-x="636" 
d="M41 700h300q117 0 182 -58t65 -160q0 -103 -66 -163t-181 -60h-143v-192h88v-67h-245v67h78v566h-78v67zM198 332h139q81 0 125.5 39.5t44.5 110.5q0 69 -44 107t-126 38h-139v-295z" />
    <glyph glyph-name="Q" unicode="Q" horiz-adv-x="756" 
d="M378 -10q-96 0 -170 48t-114 129.5t-40 182.5q0 106 43 188.5t116.5 127t164.5 44.5q96 0 170 -48t114 -129.5t40 -182.5q0 -91 -33 -167t-93 -125l68 -93l-62 -45l-71 98q-62 -28 -133 -28zM378 64q46 0 89 16l-76 105l62 45l78 -109q43 38 66.5 97.5t23.5 131.5
q0 86 -32 151t-86.5 100t-124.5 35q-73 0 -128.5 -37.5t-85 -102t-29.5 -146.5q0 -86 32 -151t86.5 -100t124.5 -35z" />
    <glyph glyph-name="R" unicode="R" horiz-adv-x="686" 
d="M404 67h72l-125 204h-153v-204h74v-67h-231v67h78v566h-78v67h310q112 0 174.5 -55.5t62.5 -156.5q0 -76 -41 -131t-114 -75l136 -215h78v-67h-243v67zM198 344h154q73 0 114 38t41 105q0 66 -40 103t-115 37h-154v-283z" />
    <glyph glyph-name="S" unicode="S" horiz-adv-x="591" 
d="M60 213h69v-123q66 -26 152 -26q79 0 124 33t45 92q0 49 -34 77t-125 54l-40 11q-95 27 -136.5 71t-41.5 117q0 88 62 139.5t168 51.5q115 0 199 -39v-170h-69v117q-65 18 -126 18q-73 0 -113 -30t-40 -84q0 -45 30.5 -72t107.5 -49l40 -11q106 -29 152.5 -75t46.5 -122
q0 -94 -66.5 -148.5t-179.5 -54.5q-66 0 -119.5 11t-105.5 37v175z" />
    <glyph glyph-name="T" unicode="T" horiz-adv-x="617" 
d="M511 627h-163v-560h88v-67h-255v67h88v560h-163v-108h-69v181h543v-181h-69v108z" />
    <glyph glyph-name="U" unicode="U" horiz-adv-x="746" 
d="M474 700h235v-67h-78v-361q0 -138 -66 -210t-192 -72t-192 72t-66 210v361h-78v67h235v-67h-78v-358q0 -104 45 -157.5t134 -53.5t134 53.5t45 157.5v358h-78v67z" />
    <glyph glyph-name="V" unicode="V" horiz-adv-x="727" 
d="M483 700h222v-67h-71l-229 -633h-83l-230 633h-70v67h222v-67h-64l185 -544l186 544h-68v67z" />
    <glyph glyph-name="W" unicode="W" horiz-adv-x="956" 
d="M27 700h217v-67h-71l122 -524l148 531h70l149 -529l120 522h-70v67h217v-67h-64l-159 -633h-85l-144 514l-142 -514h-85l-159 633h-64v67z" />
    <glyph glyph-name="X" unicode="X" horiz-adv-x="681" 
d="M654 0h-231v67h68l-152 233l-153 -233h66v-67h-225v67h71l197 286l-191 280h-70v67h231v-67h-69l146 -221l146 221h-67v67h225v-67h-70l-190 -275l197 -291h71v-67z" />
    <glyph glyph-name="Y" unicode="Y" horiz-adv-x="682" 
d="M436 700h226v-67h-76l-205 -357v-209h84v-67h-247v67h84v207l-208 359h-74v67h226v-67h-62l159 -289l159 289h-66v67z" />
    <glyph glyph-name="Z" unicode="Z" horiz-adv-x="618" 
d="M56 0v68l401 559h-322v-108h-69v181h486v-68l-401 -559h342v111h69v-184h-506z" />
    <glyph glyph-name="a" unicode="a" horiz-adv-x="569" 
d="M221 -10q-76 0 -119.5 40t-43.5 111q0 77 47 118.5t133 41.5h159v17q0 73 -32 107.5t-99 34.5q-80 0 -159 -44l-25 60q50 28 96.5 41t99.5 13q96 0 145 -52t49 -154v-264h69v-60h-133l-8 58q-36 -32 -84 -50t-95 -18zM239 58q40 0 82.5 17.5t75.5 46.5v117h-144
q-119 0 -119 -96q0 -40 27.5 -62.5t77.5 -22.5z" />
    <glyph glyph-name="b" unicode="b" horiz-adv-x="601" 
d="M22 750h144v-284q42 35 80.5 49.5t88.5 14.5q66 0 115 -35t75.5 -96.5t26.5 -139.5q0 -81 -30 -142t-82 -94t-119 -33q-44 0 -85 14t-75 40l-6 -44h-64v690h-69v60zM318 463q-41 0 -77 -15t-75 -48v-288q30 -27 66.5 -41t75.5 -14q76 0 122 55.5t46 146.5t-43.5 147.5
t-114.5 56.5z" />
    <glyph glyph-name="c" unicode="c" horiz-adv-x="505" 
d="M391 366v83q-39 13 -80 13q-56 0 -98.5 -26.5t-65 -72.5t-22.5 -104q0 -60 24.5 -106t66.5 -70.5t95 -24.5q39 0 70.5 7.5t63.5 25.5l22 -56q-69 -45 -161 -45q-78 0 -136.5 35t-89.5 95.5t-31 138.5q0 81 34 143t92 95t131 33q84 0 150 -34v-130h-65z" />
    <glyph glyph-name="d" unicode="d" horiz-adv-x="612" 
d="M266 -10q-66 0 -115 35t-75.5 95.5t-26.5 138.5q0 81 30 143t82.5 95t118.5 33q84 0 155 -52v212h-69v60h144v-690h69v-60h-133l-7 54q-42 -35 -81.5 -49.5t-91.5 -14.5zM283 57q41 0 77.5 14.5t74.5 46.5v288q-31 27 -68 42t-74 15q-77 0 -122.5 -55.5t-45.5 -148.5
q0 -91 43.5 -146.5t114.5 -55.5z" />
    <glyph glyph-name="e" unicode="e" horiz-adv-x="556" 
d="M126 232q8 -81 57.5 -128t127.5 -47q47 0 82 9t75 32l25 -58q-43 -26 -87.5 -38t-100.5 -12q-78 0 -136 35t-89 95.5t-31 138.5q0 80 32.5 142t86.5 95.5t119 33.5q67 0 116.5 -31.5t76.5 -86.5t27 -124q0 -28 -2 -56h-379zM288 463q-64 0 -107.5 -45t-53.5 -121h304v5
q0 46 -18.5 83.5t-50.5 57.5t-74 20z" />
    <glyph glyph-name="f" unicode="f" horiz-adv-x="376" 
d="M53 60h69v394h-97v65h97v46q0 91 46 143t127 52q53 0 98 -23l-15 -59q-41 15 -77 15q-50 0 -77 -33t-27 -94v-47h163v-65h-163v-394h79v-60h-223v60z" />
    <glyph glyph-name="g" unicode="g" horiz-adv-x="611" 
d="M574 459h-64v-446q0 -117 -59.5 -178t-174.5 -61q-103 0 -188 44l20 62q35 -18 78 -28.5t84 -10.5q86 0 125.5 40t39.5 126v54q-40 -32 -79.5 -46.5t-89.5 -14.5q-65 0 -114.5 34.5t-76 94.5t-26.5 136q0 79 30.5 139.5t82.5 93t118 32.5q88 0 160 -56l6 45h128v-60z
M283 67q41 0 77.5 14.5t74.5 46.5v278q-31 27 -68 42t-74 15q-77 0 -122.5 -54.5t-45.5 -143.5q0 -88 43.5 -143t114.5 -55z" />
    <glyph glyph-name="h" unicode="h" horiz-adv-x="630" 
d="M389 60h69v258q0 142 -124 142q-81 0 -157 -65v-335h69v-60h-213v60h69v630h-69v60h144v-292q46 38 88.5 55t92.5 17q85 0 130 -52.5t45 -153.5v-264h69v-60h-213v60z" />
    <glyph glyph-name="i" unicode="i" horiz-adv-x="279" 
d="M33 60h69v399h-69v60h144v-459h69v-60h-213v60zM132 727q23 0 36.5 -13.5t13.5 -34.5t-13.5 -34.5t-36.5 -13.5t-36.5 13.5t-13.5 34.5t13.5 34.5t36.5 13.5z" />
    <glyph glyph-name="j" unicode="j" horiz-adv-x="235" 
d="M14 519h144v-571q0 -82 -34.5 -128t-97.5 -46q-47 0 -84 19l16 58q26 -10 53 -10q72 0 72 105v513h-69v60zM113 727q23 0 36.5 -13.5t13.5 -34.5t-13.5 -34.5t-36.5 -13.5t-36.5 13.5t-13.5 34.5t13.5 34.5t36.5 13.5z" />
    <glyph glyph-name="k" unicode="k" horiz-adv-x="597" 
d="M357 60h53l-162 209l-71 -60v-149h69v-60h-213v60h69v630h-69v60h144v-460l201 169h-54v60h228v-60h-73l-174 -146l199 -253h72v-60h-219v60z" />
    <glyph glyph-name="l" unicode="l" horiz-adv-x="279" 
d="M33 750h144v-690h69v-60h-213v60h69v630h-69v60z" />
    <glyph glyph-name="m" unicode="m" horiz-adv-x="956" 
d="M374 60h69v258q0 70 -29.5 106t-86.5 36q-36 0 -74.5 -16.5t-75.5 -48.5v-335h69v-60h-213v60h69v399h-69v60h133l8 -60q85 71 177 71q50 0 87 -22t57 -63q97 85 197 85q81 0 124 -53t43 -153v-264h69v-60h-213v60h69v258q0 142 -116 142q-75 0 -156 -70q6 -30 6 -66
v-264h69v-60h-213v60z" />
    <glyph glyph-name="n" unicode="n" horiz-adv-x="630" 
d="M389 60h69v258q0 142 -124 142q-81 0 -157 -65v-335h69v-60h-213v60h69v399h-69v60h133l8 -60q44 37 89 54t95 17q85 0 130 -52.5t45 -153.5v-264h69v-60h-213v60z" />
    <glyph glyph-name="o" unicode="o" horiz-adv-x="600" 
d="M475 260q0 90 -49 146.5t-126 56.5t-126 -56.5t-49 -146.5t49 -146.5t126 -56.5t126 56.5t49 146.5zM551 260q0 -80 -33.5 -142t-90 -95t-127.5 -33q-75 0 -132 36t-88 97t-31 137q0 80 33.5 142t90 95t127.5 33q75 0 132 -36t88 -97t31 -137z" />
    <glyph glyph-name="p" unicode="p" horiz-adv-x="612" 
d="M33 519h133l7 -55q41 35 82 50.5t91 15.5q66 0 115 -35t75.5 -96.5t26.5 -139.5q0 -81 -30 -142t-82 -94t-119 -33q-86 0 -155 51v-197h79v-60h-223v60h69v615h-69v60zM329 463q-41 0 -77 -15t-75 -48v-288q30 -27 66.5 -41t75.5 -14q76 0 122 55.5t46 146.5t-43.5 147.5
t-114.5 56.5z" />
    <glyph glyph-name="q" unicode="q" horiz-adv-x="607" 
d="M579 -216h-223v60h79v207q-40 -32 -79.5 -46.5t-89.5 -14.5q-66 0 -115 35t-75.5 95.5t-26.5 138.5q0 81 30 143t82.5 95t118.5 33q89 0 160 -57l6 46h64v-675h69v-60zM283 57q41 0 77.5 14.5t74.5 46.5v288q-31 27 -68 42t-74 15q-77 0 -122.5 -55.5t-45.5 -148.5
q0 -91 43.5 -146.5t114.5 -55.5z" />
    <glyph glyph-name="r" unicode="r" horiz-adv-x="410" 
d="M33 519h133l8 -63q79 74 174 74q20 0 42 -5l-10 -72q-23 4 -47 4q-80 0 -156 -63v-334h79v-60h-223v60h69v399h-69v60z" />
    <glyph glyph-name="s" unicode="s" horiz-adv-x="470" 
d="M335 376v73q-52 14 -97 14q-48 0 -76 -20t-28 -55q0 -32 21.5 -50t76.5 -34l28 -8q87 -24 124 -59t37 -94q0 -70 -51.5 -111.5t-141.5 -41.5q-102 0 -179 39v120h65v-74q52 -18 110 -18q121 0 121 82q0 33 -24 52t-88 38l-28 8q-79 22 -113 56t-34 92q0 44 23.5 77
t64 50.5t92.5 17.5q41 0 83.5 -9t78.5 -25v-120h-65z" />
    <glyph glyph-name="t" unicode="t" horiz-adv-x="418" 
d="M266 -10q-82 0 -121 46.5t-39 143.5v274h-93v65h95l13 148h60v-148h183v-65h-183v-266q0 -131 97 -131q48 0 90 24l18 -58q-24 -15 -56.5 -24t-63.5 -9z" />
    <glyph glyph-name="u" unicode="u" horiz-adv-x="618" 
d="M20 519h144v-318q0 -141 122 -141q77 0 155 63v336h-69v60h144v-459h69v-60h-133l-8 60q-44 -36 -88 -53t-94 -17q-85 0 -129 52.5t-44 152.5v264h-69v60z" />
    <glyph glyph-name="v" unicode="v" horiz-adv-x="594" 
d="M261 0l-187 459h-55v60h202v-60h-64l141 -380l141 380h-64v60h200v-60h-56l-186 -459h-72z" />
    <glyph glyph-name="w" unicode="w" horiz-adv-x="854" 
d="M632 519h201v-60h-57l-153 -459h-73l-124 401l-121 -401h-73l-154 459h-57v60h201v-60h-66l112 -368l124 409h73l122 -409l111 368h-66v60z" />
    <glyph glyph-name="x" unicode="x" horiz-adv-x="586" 
d="M34 519h207v-60h-56l111 -144l109 144h-54v60h202v-60h-66l-150 -191l166 -208h62v-60h-207v60h58l-125 162l-123 -162h55v-60h-202v60h65l164 208l-152 191h-64v60z" />
    <glyph glyph-name="y" unicode="y" horiz-adv-x="588" 
d="M371 519h200v-60h-55l-191 -466q-35 -86 -62 -132t-56.5 -66.5t-73.5 -20.5q-50 0 -91 22l17 59q39 -14 66 -14q26 0 45 12t37.5 43t46.5 100l4 10l-186 453h-55v60h202v-60h-64l142 -376l139 376h-65v60z" />
    <glyph glyph-name="z" unicode="z" horiz-adv-x="490" 
d="M56 369v150h383v-57l-303 -397h245v85h65v-150h-402v57l303 397h-226v-85h-65z" />
    <glyph glyph-name="trademark" unicode="&#x2122;" horiz-adv-x="919" 
d="M727 370h44v214l-101 -219h-52l-101 219v-214h44v-54h-150v54h44v276h-44v54h114l120 -260l118 260h116v-54h-44v-276h44v-54h-152v54zM300 641h-76v-271h44v-54h-153v54h44v271h-76v-46h-53v105h323v-105h-53v46z" />
    <glyph glyph-name="ordfeminine" unicode="&#xaa;" horiz-adv-x="403" 
d="M145 341q-47 0 -76 28.5t-29 75.5q0 51 32 80t88 29h102q-1 46 -21 67.5t-62 21.5q-43 0 -103 -30l-19 49q63 38 132 38q66 0 101 -35.5t35 -103.5v-163h48v-49h-101l-6 40q-55 -48 -121 -48zM50 235v59h323v-59h-323zM158 396q25 0 53.5 11.5t50.5 29.5v68h-96
q-63 0 -63 -53q0 -27 14 -41.5t41 -14.5z" />
    <glyph glyph-name="ordmasculine" unicode="&#xba;" horiz-adv-x="430" 
d="M72 235v59h286v-59h-286zM215 644q-49 0 -79 -34t-30 -90t30 -90t79 -34t79 34t30 90t-30 90t-79 34zM215 700q51 0 90.5 -24.5t61 -65t21.5 -90.5q0 -53 -23.5 -94t-62.5 -63.5t-87 -22.5q-51 0 -90.5 24.5t-61 65t-21.5 90.5q0 53 23.5 94t62.5 63.5t87 22.5z" />
    <glyph glyph-name="copyright" unicode="&#xa9;" horiz-adv-x="598" 
d="M310 336q-69 0 -112.5 43.5t-43.5 114.5q0 69 44 113.5t112 44.5q46 0 84 -19l-14 -51q-32 13 -63 13q-46 0 -72.5 -27t-26.5 -74t26.5 -74t72.5 -27q32 0 66 15l15 -49q-38 -23 -88 -23zM299 224q-79 0 -140 36t-93.5 97.5t-32.5 136.5q0 80 35.5 142t95.5 95t135 33
q79 0 140 -36t93.5 -97.5t32.5 -136.5q0 -80 -35.5 -142t-95.5 -95t-135 -33zM299 272q65 0 113 28.5t73.5 78.5t25.5 115q0 68 -27.5 118.5t-75.5 77t-109 26.5q-65 0 -113 -28.5t-73.5 -78.5t-25.5 -115q0 -68 27.5 -118.5t75.5 -77t109 -26.5z" />
    <glyph glyph-name="registered" unicode="&#xae;" horiz-adv-x="598" 
d="M195 645h120q49 0 79 -26t30 -69q0 -30 -16.5 -53t-44.5 -34l70 -109h-69l-61 100h-48v-100h-60v291zM255 504h59q48 0 48 46q0 44 -48 44h-59v-90zM299 224q-79 0 -140 36t-93.5 97.5t-32.5 136.5q0 80 35.5 142t95.5 95t135 33q79 0 140 -36t93.5 -97.5t32.5 -136.5
q0 -80 -35.5 -142t-95.5 -95t-135 -33zM299 272q65 0 113 28.5t73.5 78.5t25.5 115q0 68 -27.5 118.5t-75.5 77t-109 26.5q-65 0 -113 -28.5t-73.5 -78.5t-25.5 -115q0 -68 27.5 -118.5t75.5 -77t109 -26.5z" />
    <glyph glyph-name="quoteleft" unicode="&#x2018;" horiz-adv-x="206" 
d="M175 694q-56 -50 -66 -102q21 -4 32.5 -16.5t11.5 -30.5q0 -20 -14 -33.5t-34 -13.5q-24 0 -38.5 16t-14.5 42q0 42 26 87t71 79z" />
    <glyph glyph-name="quoteright" unicode="&#x2019;" horiz-adv-x="206" 
d="M31 514q56 50 66 102q-21 4 -32.5 16.5t-11.5 30.5q0 20 14 33.5t34 13.5q24 0 38.5 -16t14.5 -42q0 -42 -26 -87t-71 -79z" />
    <glyph glyph-name="quotesinglbase" unicode="&#x201a;" horiz-adv-x="206" 
d="M31 -111q56 50 66 102q-21 4 -32.5 16.5t-11.5 30.5q0 20 14 33.5t34 13.5q24 0 38.5 -16t14.5 -42q0 -42 -26 -87t-71 -79z" />
    <glyph glyph-name="quotedblleft" unicode="&#x201c;" horiz-adv-x="363" 
d="M175 694q-56 -50 -66 -102q21 -4 32.5 -16.5t11.5 -30.5q0 -20 -14 -33.5t-34 -13.5q-24 0 -38.5 16t-14.5 42q0 42 26 87t71 79zM332 694q-56 -50 -66 -102q21 -4 32.5 -16.5t11.5 -30.5q0 -20 -14 -33.5t-34 -13.5q-24 0 -38.5 16t-14.5 42q0 42 26 87t71 79z" />
    <glyph glyph-name="quotedblright" unicode="&#x201d;" horiz-adv-x="363" 
d="M31 514q56 50 66 102q-21 4 -32.5 16.5t-11.5 30.5q0 20 14 33.5t34 13.5q24 0 38.5 -16t14.5 -42q0 -42 -26 -87t-71 -79zM188 514q56 50 66 102q-21 4 -32.5 16.5t-11.5 30.5q0 20 14 33.5t34 13.5q24 0 38.5 -16t14.5 -42q0 -42 -26 -87t-71 -79z" />
    <glyph glyph-name="quotedblbase" unicode="&#x201e;" horiz-adv-x="363" 
d="M31 -111q56 50 66 102q-21 4 -32.5 16.5t-11.5 30.5q0 20 14 33.5t34 13.5q24 0 38.5 -16t14.5 -42q0 -42 -26 -87t-71 -79zM188 -111q56 50 66 102q-21 4 -32.5 16.5t-11.5 30.5q0 20 14 33.5t34 13.5q24 0 38.5 -16t14.5 -42q0 -42 -26 -87t-71 -79z" />
    <glyph glyph-name="minute" unicode="&#x2032;" horiz-adv-x="208" 
d="M89 700h84l-60 -214h-61z" />
    <glyph glyph-name="second" unicode="&#x2033;" horiz-adv-x="379" 
d="M89 700h84l-60 -214h-61zM260 700h84l-60 -214h-61z" />
    <glyph glyph-name="periodcentered.loclCAT" horiz-adv-x="194" 
d="M97 322q-22 0 -36.5 13.5t-14.5 34.5t14.5 34.5t36.5 13.5t36.5 -13.5t14.5 -34.5t-14.5 -34.5t-36.5 -13.5z" />
    <glyph glyph-name="periodcentered.loclCAT.cap" horiz-adv-x="194" 
d="M97 342q-22 0 -36.5 13.5t-14.5 34.5t14.5 34.5t36.5 13.5t36.5 -13.5t14.5 -34.5t-14.5 -34.5t-36.5 -13.5z" />
    <glyph glyph-name="dotlessi" unicode="&#x131;" horiz-adv-x="279" 
d="M33 519h144v-459h69v-60h-213v60h69v399h-69v60z" />
    <glyph glyph-name="uni0237" unicode="&#x237;" horiz-adv-x="235" 
d="M14 519h144v-571q0 -82 -34.5 -128t-97.5 -46q-47 0 -84 19l16 58q26 -10 53 -10q72 0 72 105v513h-69v60z" />
    <glyph glyph-name="IJ" unicode="&#x132;" horiz-adv-x="763" 
d="M41 67h78v566h-78v67h235v-67h-78v-566h78v-67h-235v67zM465 700h222v-480q0 -230 -196 -230q-81 0 -142 35l20 66q56 -28 113 -28q65 0 95.5 39.5t30.5 124.5v406h-143v67z" />
    <glyph glyph-name="IJacute" horiz-adv-x="763" 
d="M41 67h78v566h-78v67h235v-67h-78v-566h78v-67h-235v67zM465 700h222v-480q0 -230 -196 -230q-81 0 -142 35l20 66q56 -28 113 -28q65 0 95.5 39.5t30.5 124.5v406h-143v67zM112 768l101 116h106l-125 -116h-82zM601 768l101 116h106l-125 -116h-82z" />
    <glyph glyph-name="ij" unicode="&#x133;" horiz-adv-x="528" 
d="M33 60h69v399h-69v60h144v-459h69v-60h-213v60zM132 727q23 0 36.5 -13.5t13.5 -34.5t-13.5 -34.5t-36.5 -13.5t-36.5 13.5t-13.5 34.5t13.5 34.5t36.5 13.5zM307 519h144v-571q0 -82 -34.5 -128t-97.5 -46q-47 0 -84 19l16 58q26 -10 53 -10q72 0 72 105v513h-69v60z
M406 727q23 0 36.5 -13.5t13.5 -34.5t-13.5 -34.5t-36.5 -13.5t-36.5 13.5t-13.5 34.5t13.5 34.5t36.5 13.5z" />
    <glyph glyph-name="ijacute" horiz-adv-x="528" 
d="M33 519h144v-459h69v-60h-213v60h69v399h-69v60zM307 519h144v-571q0 -82 -34.5 -128t-97.5 -46q-47 0 -84 19l16 58q26 -10 53 -10q72 0 72 105v513h-69v60zM79 609l98 144h95l-117 -144h-76zM353 609l98 144h95l-117 -144h-76z" />
    <glyph glyph-name="xx.f01" horiz-adv-x="369" 
d="M53 60h69v394h-97v65h97v46q0 92 43.5 143.5t121.5 51.5q34 0 59 -11l-14 -61q-18 5 -39 5q-46 0 -71 -33t-25 -94v-47h159v-65h-159v-394h79v-60h-223v60z" />
    <glyph glyph-name="xx.f02" horiz-adv-x="339" 
d="M53 60h69v394h-97v65h97v46q0 91 45 143t124 52q46 0 80 -17l-15 -59q-25 9 -56 9q-49 0 -76 -33t-27 -94v-47h300v-65h-300v-394h79v-60h-223v60z" />
    <glyph glyph-name="Thorn" unicode="&#xde;" horiz-adv-x="636" 
d="M41 700h235v-67h-78v-57h143q117 0 182 -58t65 -160q0 -103 -66 -163t-181 -60h-143v-68h78v-67h-235v67h78v566h-78v67zM198 503v-295h139q81 0 125.5 39.5t44.5 110.5q0 69 -44 107t-126 38h-139z" />
    <glyph glyph-name="AE" unicode="&#xc6;" horiz-adv-x="996" 
d="M446 67h78v151h-261l-90 -151h67v-67h-227v67h72l344 566h-62v67h573v-171h-69v98h-268v-237h279v-73h-279v-244h278v98h69v-171h-504v67zM306 290h218v340h-15z" />
    <glyph glyph-name="OE" unicode="&#x152;" horiz-adv-x="1093" 
d="M1047 0h-426v131q-37 -66 -102.5 -103.5t-144.5 -37.5q-94 0 -167.5 48.5t-113 130t-39.5 181.5q0 106 43 188.5t115.5 127t161.5 44.5q79 0 144.5 -37t102.5 -102v129h416v-171h-69v98h-268v-237h279v-73h-279v-244h278v98h69v-171zM378 64q73 0 128.5 37.5t85 102
t29.5 146.5q0 86 -32 151t-86.5 100t-124.5 35q-73 0 -128.5 -37.5t-85 -102t-29.5 -146.5q0 -86 32 -151t86.5 -100t124.5 -35z" />
    <glyph glyph-name="uni1E9E" unicode="&#x1e9e;" horiz-adv-x="734" 
d="M37 67h78v331q0 149 81 230.5t227 81.5q65 0 128.5 -19t101.5 -48v-61l-168 -186q66 -3 115 -28t74.5 -68t25.5 -101q0 -94 -64 -151.5t-167 -57.5q-37 0 -75.5 7.5t-68.5 21.5v165h69v-110q33 -10 75 -10q45 0 79 18t52.5 49t18.5 68q0 133 -178 133q-20 0 -48 -2v63
l185 209q-68 34 -156 34q-112 0 -170 -62.5t-58 -183.5v-390h-157v67z" />
    <glyph glyph-name="thorn" unicode="&#xfe;" horiz-adv-x="612" 
d="M33 750h144v-284q42 35 80.5 49.5t88.5 14.5q66 0 115 -35t75.5 -96.5t26.5 -139.5q0 -81 -30 -142t-82 -94t-119 -33q-86 0 -155 50v-196h79v-60h-223v60h69v846h-69v60zM329 463q-41 0 -77 -15t-75 -48v-288q30 -27 66.5 -41t75.5 -14q76 0 122 55.5t46 146.5
t-43.5 147.5t-114.5 56.5z" />
    <glyph glyph-name="ae" unicode="&#xe6;" horiz-adv-x="904" 
d="M229 -10q-80 0 -125.5 40t-45.5 111q0 77 47 118.5t133 41.5h159v17q0 73 -32 107.5t-99 34.5q-80 0 -159 -44l-25 60q50 28 96 41t98 13q133 0 173 -104q33 50 82 77t105 27q67 0 116.5 -31.5t76 -86.5t26.5 -124q0 -28 -2 -56h-379q8 -81 57.5 -128t127.5 -47
q47 0 82 9t75 32l25 -58q-43 -26 -87.5 -38t-100.5 -12q-63 0 -115 24t-86 68q-50 -47 -104.5 -69.5t-118.5 -22.5zM242 58q50 0 96 20.5t82 58.5q-20 46 -23 102h-144q-119 0 -119 -96q0 -40 28.5 -62.5t79.5 -22.5zM636 463q-64 0 -107.5 -45t-53.5 -121h304v6
q0 46 -18.5 83.5t-50.5 57t-74 19.5z" />
    <glyph glyph-name="oe" unicode="&#x153;" horiz-adv-x="982" 
d="M919 40q-43 -26 -87.5 -38t-100.5 -12q-77 0 -133.5 35t-87.5 102q-30 -66 -85.5 -101.5t-127.5 -35.5q-73 0 -130 36t-87.5 97t-30.5 137q0 80 33 142t89.5 95t125.5 33q72 0 128.5 -36.5t84.5 -100.5q28 64 82 100.5t121 36.5t116.5 -31.5t76.5 -86.5t27 -124
q0 -28 -2 -56h-379q8 -81 57.5 -128t127.5 -47q47 0 82 9t75 32zM300 463q-77 0 -126 -56.5t-49 -146.5t49 -146.5t126 -56.5t126 56.5t49 146.5t-49 146.5t-126 56.5zM714 463q-64 0 -107.5 -45t-53.5 -121h304v6q0 46 -18.5 83.5t-50.5 57t-74 19.5z" />
    <glyph glyph-name="germandbls" unicode="&#xdf;" horiz-adv-x="641" 
d="M33 60h69v417q0 133 64 208t178 75q94 0 154.5 -51.5t60.5 -133.5q0 -61 -34 -109.5t-89 -69.5q71 -15 113.5 -67.5t42.5 -125.5q0 -65 -28.5 -113t-78.5 -74t-114 -26q-34 0 -67.5 8t-56.5 21l19 62q19 -11 46 -17.5t53 -6.5q69 0 110 40.5t41 107.5q0 150 -196 150h-45
v64h40q76 0 122 41.5t46 109.5q0 56 -38 89.5t-103 33.5q-80 0 -122.5 -57t-42.5 -163v-473h-144v60z" />
    <glyph glyph-name="Eth" unicode="&#xd0;" horiz-adv-x="741" 
d="M687 350q0 -109 -43 -188t-120.5 -120.5t-181.5 -41.5h-297v67h78v257h-86v68h86v241h-78v67h297q107 0 185 -43.5t119 -122.5t41 -184zM606 350q0 131 -70 204t-195 73h-139v-235h140v-68h-140v-251h139q125 0 195 73t70 204z" />
    <glyph glyph-name="Oslash" unicode="&#xd8;" horiz-adv-x="756" 
d="M378 -10q-118 0 -204 73l-72 -82l-53 46l77 88q-72 97 -72 235q0 106 43 188.5t116.5 127t164.5 44.5q118 0 204 -73l72 82l53 -46l-77 -88q35 -47 53.5 -107.5t18.5 -127.5q0 -106 -43 -188.5t-116.5 -127t-164.5 -44.5zM378 64q73 0 128.5 37.5t85 102t29.5 146.5
q0 103 -44 174l-353 -403q65 -57 154 -57zM135 350q0 -103 44 -174l353 403q-65 57 -154 57q-73 0 -128.5 -37.5t-85 -102t-29.5 -146.5z" />
    <glyph glyph-name="eth" unicode="&#xf0;" horiz-adv-x="598" 
d="M475 733l-96 -71q170 -144 170 -386q0 -131 -68.5 -208.5t-181.5 -77.5q-74 0 -131 34.5t-88 93t-31 130.5q0 74 32.5 132.5t86.5 91t117 32.5q50 0 94.5 -19t72.5 -53q-35 108 -134 186l-123 -90l-36 49l106 78q-33 21 -99 51l34 62q68 -28 128 -68l111 82zM301 57
q73 0 122.5 55t49.5 135q0 56 -23.5 99.5t-63.5 67t-89 23.5q-50 0 -89.5 -25.5t-61 -69t-21.5 -95.5q0 -83 49.5 -136.5t126.5 -53.5z" />
    <glyph glyph-name="oslash" unicode="&#xf8;" horiz-adv-x="600" 
d="M551 260q0 -80 -33.5 -142t-90 -95t-127.5 -33q-91 0 -154 51l-53 -59l-47 42l56 62q-53 72 -53 174q0 80 33.5 142t90 95t127.5 33q91 0 154 -51l53 59l47 -42l-56 -62q53 -72 53 -174zM475 260q0 67 -28 117l-254 -283q45 -37 107 -37q77 0 126 56.5t49 146.5zM125 260
q0 -67 28 -117l254 283q-45 37 -107 37q-77 0 -126 -56.5t-49 -146.5z" />
    <glyph glyph-name="uni0327" unicode="&#x327;" horiz-adv-x="0" 
d="M-87 -159q38 -18 75 -18q53 0 53 39q0 19 -19 29t-54 10h-37l39 101h60l-23 -55q46 -5 70 -27t24 -59q0 -40 -29.5 -65.5t-77.5 -25.5q-59 0 -97 24z" />
    <glyph glyph-name="uni0327.cap" horiz-adv-x="0" 
d="M-87 -158q38 -18 75 -18q54 0 54 38q0 19 -19.5 29t-54.5 10h-37l39 101h62l-22 -53q44 -5 68.5 -28t24.5 -60q0 -40 -30.5 -65.5t-78.5 -25.5q-59 0 -97 24z" />
    <glyph glyph-name="cedilla" unicode="&#xb8;" horiz-adv-x="630" 
d="M211 -159q38 -18 75 -18q53 0 53 39q0 19 -19 29t-54 10h-37l39 101h60l-23 -55q46 -5 70 -27t24 -59q0 -40 -29.5 -65.5t-77.5 -25.5q-59 0 -97 24z" />
    <glyph glyph-name="uni0326" unicode="&#x326;" horiz-adv-x="0" 
d="M-52 -230q37 42 45 80q-18 3 -27.5 13.5t-9.5 27.5q0 19 12.5 31t31.5 12q22 0 35.5 -15.5t13.5 -40.5q0 -32 -19 -67.5t-53 -66.5z" />
    <glyph glyph-name="uni0326.cap" horiz-adv-x="0" 
d="M-53 -230q19 22 30 41t15 37q-17 3 -27 14t-10 29q0 19 12.5 31t32.5 12q22 0 36 -15.5t14 -40.5q0 -32 -19.5 -68t-53.5 -67z" />
    <glyph glyph-name="Ccedilla" unicode="&#xc7;" horiz-adv-x="654" 
d="M387 -10q-100 0 -176 47t-116.5 128.5t-40.5 184.5q0 107 44.5 189.5t121 126.5t174.5 44q55 0 106 -12t90 -33v-171h-69v120q-59 22 -127 22q-79 0 -138 -37t-90 -101.5t-31 -147.5q0 -87 33.5 -152t92 -99.5t133.5 -34.5q70 0 134 24v118h69v-167q-86 -49 -210 -49z
M288 -158q38 -18 75 -18q54 0 54 38q0 19 -19.5 29t-54.5 10h-37l39 101h62l-22 -53q44 -5 68.5 -28t24.5 -60q0 -40 -30.5 -65.5t-78.5 -25.5q-59 0 -97 24z" />
    <glyph glyph-name="Scedilla" unicode="&#x15e;" horiz-adv-x="591" 
d="M60 213h69v-123q66 -26 152 -26q79 0 124 33t45 92q0 49 -34 77t-125 54l-40 11q-95 27 -136.5 71t-41.5 117q0 88 62 139.5t168 51.5q115 0 199 -39v-170h-69v117q-65 18 -126 18q-73 0 -113 -30t-40 -84q0 -45 30.5 -72t107.5 -49l40 -11q106 -29 152.5 -75t46.5 -122
q0 -94 -66.5 -148.5t-179.5 -54.5q-66 0 -119.5 11t-105.5 37v175zM207 -158q38 -18 75 -18q54 0 54 38q0 19 -19.5 29t-54.5 10h-37l39 101h62l-22 -53q44 -5 68.5 -28t24.5 -60q0 -40 -30.5 -65.5t-78.5 -25.5q-59 0 -97 24z" />
    <glyph glyph-name="uni0162" unicode="&#x162;" horiz-adv-x="617" 
d="M511 627h-163v-560h88v-67h-255v67h88v560h-163v-108h-69v181h543v-181h-69v108zM221 -158q38 -18 75 -18q54 0 54 38q0 19 -19.5 29t-54.5 10h-37l39 101h62l-22 -53q44 -5 68.5 -28t24.5 -60q0 -40 -30.5 -65.5t-78.5 -25.5q-59 0 -97 24z" />
    <glyph glyph-name="uni0218" unicode="&#x218;" horiz-adv-x="591" 
d="M60 213h69v-123q66 -26 152 -26q79 0 124 33t45 92q0 49 -34 77t-125 54l-40 11q-95 27 -136.5 71t-41.5 117q0 88 62 139.5t168 51.5q115 0 199 -39v-170h-69v117q-65 18 -126 18q-73 0 -113 -30t-40 -84q0 -45 30.5 -72t107.5 -49l40 -11q106 -29 152.5 -75t46.5 -122
q0 -94 -66.5 -148.5t-179.5 -54.5q-66 0 -119.5 11t-105.5 37v175zM241 -230q19 22 30 41t15 37q-17 3 -27 14t-10 29q0 19 12.5 31t32.5 12q22 0 36 -15.5t14 -40.5q0 -32 -19.5 -68t-53.5 -67z" />
    <glyph glyph-name="uni021A" unicode="&#x21a;" horiz-adv-x="617" 
d="M511 627h-163v-560h88v-67h-255v67h88v560h-163v-108h-69v181h543v-181h-69v108zM255 -230q19 22 30 41t15 37q-17 3 -27 14t-10 29q0 19 12.5 31t32.5 12q22 0 36 -15.5t14 -40.5q0 -32 -19.5 -68t-53.5 -67z" />
    <glyph glyph-name="ccedilla" unicode="&#xe7;" horiz-adv-x="505" 
d="M391 366v83q-39 13 -80 13q-56 0 -98.5 -26.5t-65 -72.5t-22.5 -104q0 -60 24.5 -106t66.5 -70.5t95 -24.5q39 0 70.5 7.5t63.5 25.5l22 -56q-69 -45 -161 -45q-78 0 -136.5 35t-89.5 95.5t-31 138.5q0 81 34 143t92 95t131 33q84 0 150 -34v-130h-65zM214 -159
q38 -18 75 -18q53 0 53 39q0 19 -19 29t-54 10h-37l39 101h60l-23 -55q46 -5 70 -27t24 -59q0 -40 -29.5 -65.5t-77.5 -25.5q-59 0 -97 24z" />
    <glyph glyph-name="scedilla" unicode="&#x15f;" horiz-adv-x="470" 
d="M335 376v73q-52 14 -97 14q-48 0 -76 -20t-28 -55q0 -32 21.5 -50t76.5 -34l28 -8q87 -24 124 -59t37 -94q0 -70 -51.5 -111.5t-141.5 -41.5q-102 0 -179 39v120h65v-74q52 -18 110 -18q121 0 121 82q0 33 -24 52t-88 38l-28 8q-79 22 -113 56t-34 92q0 44 23.5 77
t64 50.5t92.5 17.5q41 0 83.5 -9t78.5 -25v-120h-65zM147 -159q38 -18 75 -18q53 0 53 39q0 19 -19 29t-54 10h-37l39 101h60l-23 -55q46 -5 70 -27t24 -59q0 -40 -29.5 -65.5t-77.5 -25.5q-59 0 -97 24z" />
    <glyph glyph-name="uni0163" unicode="&#x163;" horiz-adv-x="418" 
d="M266 -10q-82 0 -121 46.5t-39 143.5v274h-93v65h95l13 148h60v-148h183v-65h-183v-266q0 -131 97 -131q48 0 90 24l18 -58q-24 -15 -56.5 -24t-63.5 -9zM158 -159q38 -18 75 -18q53 0 53 39q0 19 -19 29t-54 10h-37l39 101h60l-23 -55q46 -5 70 -27t24 -59
q0 -40 -29.5 -65.5t-77.5 -25.5q-59 0 -97 24z" />
    <glyph glyph-name="uni0219" unicode="&#x219;" horiz-adv-x="470" 
d="M335 376v73q-52 14 -97 14q-48 0 -76 -20t-28 -55q0 -32 21.5 -50t76.5 -34l28 -8q87 -24 124 -59t37 -94q0 -70 -51.5 -111.5t-141.5 -41.5q-102 0 -179 39v120h65v-74q52 -18 110 -18q121 0 121 82q0 33 -24 52t-88 38l-28 8q-79 22 -113 56t-34 92q0 44 23.5 77
t64 50.5t92.5 17.5q41 0 83.5 -9t78.5 -25v-120h-65zM182 -230q37 42 45 80q-18 3 -27.5 13.5t-9.5 27.5q0 19 12.5 31t31.5 12q22 0 35.5 -15.5t13.5 -40.5q0 -32 -19 -67.5t-53 -66.5z" />
    <glyph glyph-name="uni021B" unicode="&#x21b;" horiz-adv-x="418" 
d="M266 -10q-82 0 -121 46.5t-39 143.5v274h-93v65h95l13 148h60v-148h183v-65h-183v-266q0 -131 97 -131q48 0 90 24l18 -58q-24 -15 -56.5 -24t-63.5 -9zM193 -230q37 42 45 80q-18 3 -27.5 13.5t-9.5 27.5q0 19 12.5 31t31.5 12q22 0 35.5 -15.5t13.5 -40.5
q0 -32 -19 -67.5t-53 -66.5z" />
    <glyph glyph-name="acutecomb" unicode="&#x301;" horiz-adv-x="0" 
d="M-43 609l98 144h95l-117 -144h-76z" />
    <glyph glyph-name="acutecomb.cap" horiz-adv-x="0" 
d="M-46 758l101 116h106l-125 -116h-82z" />
    <glyph glyph-name="acute" unicode="&#xb4;" horiz-adv-x="630" 
d="M230 609l98 144h95l-117 -144h-76z" />
    <glyph glyph-name="Aacute" unicode="&#xc1;" horiz-adv-x="749" 
d="M508 67h65l-50 140h-299l-50 -140h67v-67h-222v67h74l216 566h-65v67h172l241 -633h73v-67h-222v67zM250 279h247l-124 340zM307 768l101 116h106l-125 -116h-82z" />
    <glyph glyph-name="Eacute" unicode="&#xc9;" horiz-adv-x="596" 
d="M41 700h499v-171h-69v98h-273v-237h284v-73h-284v-244h283v98h69v-171h-509v67h78v566h-78v67zM265 768l101 116h106l-125 -116h-82z" />
    <glyph glyph-name="Iacute" unicode="&#xcd;" horiz-adv-x="317" 
d="M41 67h78v566h-78v67h235v-67h-78v-566h78v-67h-235v67zM112 768l101 116h106l-125 -116h-82z" />
    <glyph glyph-name="Oacute" unicode="&#xd3;" horiz-adv-x="756" 
d="M378 64q73 0 128.5 37.5t85 102t29.5 146.5q0 86 -32 151t-86.5 100t-124.5 35q-73 0 -128.5 -37.5t-85 -102t-29.5 -146.5q0 -86 32 -151t86.5 -100t124.5 -35zM378 -10q-96 0 -170 48t-114 129.5t-40 182.5q0 106 43 188.5t116.5 127t164.5 44.5q96 0 170 -48
t114 -129.5t40 -182.5q0 -106 -43 -188.5t-116.5 -127t-164.5 -44.5zM332 768l101 116h106l-125 -116h-82z" />
    <glyph glyph-name="Uacute" unicode="&#xda;" horiz-adv-x="746" 
d="M474 700h235v-67h-78v-361q0 -138 -66 -210t-192 -72t-192 72t-66 210v361h-78v67h235v-67h-78v-358q0 -104 45 -157.5t134 -53.5t134 53.5t45 157.5v358h-78v67zM327 768l101 116h106l-125 -116h-82z" />
    <glyph glyph-name="Wacute" unicode="&#x1e82;" horiz-adv-x="956" 
d="M27 700h217v-67h-71l122 -524l148 531h70l149 -529l120 522h-70v67h217v-67h-64l-159 -633h-85l-144 514l-142 -514h-85l-159 633h-64v67zM432 768l101 116h106l-125 -116h-82z" />
    <glyph glyph-name="Yacute" unicode="&#xdd;" horiz-adv-x="682" 
d="M436 700h226v-67h-76l-205 -357v-209h84v-67h-247v67h84v207l-208 359h-74v67h226v-67h-62l159 -289l159 289h-66v67zM295 768l101 116h106l-125 -116h-82z" />
    <glyph glyph-name="aacute" unicode="&#xe1;" horiz-adv-x="569" 
d="M221 -10q-76 0 -119.5 40t-43.5 111q0 77 47 118.5t133 41.5h159v17q0 73 -32 107.5t-99 34.5q-80 0 -159 -44l-25 60q50 28 96.5 41t99.5 13q96 0 145 -52t49 -154v-264h69v-60h-133l-8 58q-36 -32 -84 -50t-95 -18zM239 58q40 0 82.5 17.5t75.5 46.5v117h-144
q-119 0 -119 -96q0 -40 27.5 -62.5t77.5 -22.5zM232 609l98 144h95l-117 -144h-76z" />
    <glyph glyph-name="eacute" unicode="&#xe9;" horiz-adv-x="556" 
d="M126 232q8 -81 57.5 -128t127.5 -47q47 0 82 9t75 32l25 -58q-43 -26 -87.5 -38t-100.5 -12q-78 0 -136 35t-89 95.5t-31 138.5q0 80 32.5 142t86.5 95.5t119 33.5q67 0 116.5 -31.5t76.5 -86.5t27 -124q0 -28 -2 -56h-379zM288 463q-64 0 -107.5 -45t-53.5 -121h304v5
q0 46 -18.5 83.5t-50.5 57.5t-74 20zM241 609l98 144h95l-117 -144h-76z" />
    <glyph glyph-name="iacute" unicode="&#xed;" horiz-adv-x="279" 
d="M33 519h144v-459h69v-60h-213v60h69v399h-69v60zM79 609l98 144h95l-117 -144h-76z" />
    <glyph glyph-name="oacute" unicode="&#xf3;" horiz-adv-x="600" 
d="M475 260q0 90 -49 146.5t-126 56.5t-126 -56.5t-49 -146.5t49 -146.5t126 -56.5t126 56.5t49 146.5zM551 260q0 -80 -33.5 -142t-90 -95t-127.5 -33q-75 0 -132 36t-88 97t-31 137q0 80 33.5 142t90 95t127.5 33q75 0 132 -36t88 -97t31 -137zM257 609l98 144h95
l-117 -144h-76z" />
    <glyph glyph-name="uacute" unicode="&#xfa;" horiz-adv-x="618" 
d="M20 519h144v-318q0 -141 122 -141q77 0 155 63v336h-69v60h144v-459h69v-60h-133l-8 60q-44 -36 -88 -53t-94 -17q-85 0 -129 52.5t-44 152.5v264h-69v60zM251 609l98 144h95l-117 -144h-76z" />
    <glyph glyph-name="wacute" unicode="&#x1e83;" horiz-adv-x="854" 
d="M632 519h201v-60h-57l-153 -459h-73l-124 401l-121 -401h-73l-154 459h-57v60h201v-60h-66l112 -368l124 409h73l122 -409l111 368h-66v60zM384 609l98 144h95l-117 -144h-76z" />
    <glyph glyph-name="yacute" unicode="&#xfd;" horiz-adv-x="588" 
d="M371 519h200v-60h-55l-191 -466q-35 -86 -62 -132t-56.5 -66.5t-73.5 -20.5q-50 0 -91 22l17 59q39 -14 66 -14q26 0 45 12t37.5 43t46.5 100l4 10l-186 453h-55v60h202v-60h-64l142 -376l139 376h-65v60zM251 609l98 144h95l-117 -144h-76z" />
    <glyph glyph-name="gravecomb" unicode="&#x300;" horiz-adv-x="0" 
d="M-33 609l-117 144h95l98 -144h-76z" />
    <glyph glyph-name="gravecomb.cap" horiz-adv-x="0" 
d="M-36 758l-125 116h106l101 -116h-82z" />
    <glyph glyph-name="grave" unicode="`" horiz-adv-x="630" 
d="M324 609l-117 144h95l98 -144h-76z" />
    <glyph glyph-name="uni02CB" unicode="&#x2cb;" horiz-adv-x="630" 
d="M324 609l-117 144h95l98 -144h-76z" />
    <glyph glyph-name="Agrave" unicode="&#xc0;" horiz-adv-x="749" 
d="M508 67h65l-50 140h-299l-50 -140h67v-67h-222v67h74l216 566h-65v67h172l241 -633h73v-67h-222v67zM250 279h247l-124 340zM317 768l-125 116h106l101 -116h-82z" />
    <glyph glyph-name="Egrave" unicode="&#xc8;" horiz-adv-x="596" 
d="M41 700h499v-171h-69v98h-273v-237h284v-73h-284v-244h283v98h69v-171h-509v67h78v566h-78v67zM275 768l-125 116h106l101 -116h-82z" />
    <glyph glyph-name="Igrave" unicode="&#xcc;" horiz-adv-x="317" 
d="M41 67h78v566h-78v67h235v-67h-78v-566h78v-67h-235v67zM122 768l-125 116h106l101 -116h-82z" />
    <glyph glyph-name="Ograve" unicode="&#xd2;" horiz-adv-x="756" 
d="M378 64q73 0 128.5 37.5t85 102t29.5 146.5q0 86 -32 151t-86.5 100t-124.5 35q-73 0 -128.5 -37.5t-85 -102t-29.5 -146.5q0 -86 32 -151t86.5 -100t124.5 -35zM378 -10q-96 0 -170 48t-114 129.5t-40 182.5q0 106 43 188.5t116.5 127t164.5 44.5q96 0 170 -48
t114 -129.5t40 -182.5q0 -106 -43 -188.5t-116.5 -127t-164.5 -44.5zM342 768l-125 116h106l101 -116h-82z" />
    <glyph glyph-name="Ugrave" unicode="&#xd9;" horiz-adv-x="746" 
d="M474 700h235v-67h-78v-361q0 -138 -66 -210t-192 -72t-192 72t-66 210v361h-78v67h235v-67h-78v-358q0 -104 45 -157.5t134 -53.5t134 53.5t45 157.5v358h-78v67zM337 768l-125 116h106l101 -116h-82z" />
    <glyph glyph-name="Wgrave" unicode="&#x1e80;" horiz-adv-x="956" 
d="M27 700h217v-67h-71l122 -524l148 531h70l149 -529l120 522h-70v67h217v-67h-64l-159 -633h-85l-144 514l-142 -514h-85l-159 633h-64v67zM442 768l-125 116h106l101 -116h-82z" />
    <glyph glyph-name="Ygrave" unicode="&#x1ef2;" horiz-adv-x="682" 
d="M436 700h226v-67h-76l-205 -357v-209h84v-67h-247v67h84v207l-208 359h-74v67h226v-67h-62l159 -289l159 289h-66v67zM305 768l-125 116h106l101 -116h-82z" />
    <glyph glyph-name="agrave" unicode="&#xe0;" horiz-adv-x="569" 
d="M221 -10q-76 0 -119.5 40t-43.5 111q0 77 47 118.5t133 41.5h159v17q0 73 -32 107.5t-99 34.5q-80 0 -159 -44l-25 60q50 28 96.5 41t99.5 13q96 0 145 -52t49 -154v-264h69v-60h-133l-8 58q-36 -32 -84 -50t-95 -18zM239 58q40 0 82.5 17.5t75.5 46.5v117h-144
q-119 0 -119 -96q0 -40 27.5 -62.5t77.5 -22.5zM242 609l-117 144h95l98 -144h-76z" />
    <glyph glyph-name="egrave" unicode="&#xe8;" horiz-adv-x="556" 
d="M126 232q8 -81 57.5 -128t127.5 -47q47 0 82 9t75 32l25 -58q-43 -26 -87.5 -38t-100.5 -12q-78 0 -136 35t-89 95.5t-31 138.5q0 80 32.5 142t86.5 95.5t119 33.5q67 0 116.5 -31.5t76.5 -86.5t27 -124q0 -28 -2 -56h-379zM288 463q-64 0 -107.5 -45t-53.5 -121h304v5
q0 46 -18.5 83.5t-50.5 57.5t-74 20zM251 609l-117 144h95l98 -144h-76z" />
    <glyph glyph-name="igrave" unicode="&#xec;" horiz-adv-x="279" 
d="M33 519h144v-459h69v-60h-213v60h69v399h-69v60zM89 609l-117 144h95l98 -144h-76z" />
    <glyph glyph-name="ograve" unicode="&#xf2;" horiz-adv-x="600" 
d="M475 260q0 90 -49 146.5t-126 56.5t-126 -56.5t-49 -146.5t49 -146.5t126 -56.5t126 56.5t49 146.5zM551 260q0 -80 -33.5 -142t-90 -95t-127.5 -33q-75 0 -132 36t-88 97t-31 137q0 80 33.5 142t90 95t127.5 33q75 0 132 -36t88 -97t31 -137zM267 609l-117 144h95
l98 -144h-76z" />
    <glyph glyph-name="ugrave" unicode="&#xf9;" horiz-adv-x="618" 
d="M20 519h144v-318q0 -141 122 -141q77 0 155 63v336h-69v60h144v-459h69v-60h-133l-8 60q-44 -36 -88 -53t-94 -17q-85 0 -129 52.5t-44 152.5v264h-69v60zM261 609l-117 144h95l98 -144h-76z" />
    <glyph glyph-name="wgrave" unicode="&#x1e81;" horiz-adv-x="854" 
d="M632 519h201v-60h-57l-153 -459h-73l-124 401l-121 -401h-73l-154 459h-57v60h201v-60h-66l112 -368l124 409h73l122 -409l111 368h-66v60zM394 609l-117 144h95l98 -144h-76z" />
    <glyph glyph-name="ygrave" unicode="&#x1ef3;" horiz-adv-x="588" 
d="M371 519h200v-60h-55l-191 -466q-35 -86 -62 -132t-56.5 -66.5t-73.5 -20.5q-50 0 -91 22l17 59q39 -14 66 -14q26 0 45 12t37.5 43t46.5 100l4 10l-186 453h-55v60h202v-60h-64l142 -376l139 376h-65v60zM261 609l-117 144h95l98 -144h-76z" />
    <glyph glyph-name="uni0302" unicode="&#x302;" horiz-adv-x="0" 
d="M-152 609l114 143h76l114 -143h-73l-79 89l-79 -89h-73z" />
    <glyph glyph-name="uni0302.cap" horiz-adv-x="0" 
d="M-164 758l122 116h84l122 -116h-84l-80 66l-80 -66h-84z" />
    <glyph glyph-name="circumflex" unicode="&#x2c6;" horiz-adv-x="630" 
d="M163 609l114 143h76l114 -143h-73l-79 89l-79 -89h-73z" />
    <glyph glyph-name="tildecomb" unicode="&#x303;" horiz-adv-x="0" 
d="M12 706q20 -18 30 -23.5t19 -5.5q16 0 24.5 14t12.5 46h58q-4 -56 -28.5 -88t-64.5 -32q-37 0 -75 36q-20 18 -30 23.5t-19 5.5q-16 0 -24.5 -14t-12.5 -46h-58q4 56 28.5 88t64.5 32q37 0 75 -36z" />
    <glyph glyph-name="tildecomb.cap" horiz-adv-x="0" 
d="M-15 789q-33 27 -52 27q-18 0 -27 -13.5t-12 -45.5h-60q4 55 30.5 88t68.5 33q21 0 39 -8t43 -29q33 -27 52 -27q18 0 27 13.5t12 45.5h60q-4 -55 -30.5 -88t-68.5 -33q-21 0 -39 8t-43 29z" />
    <glyph glyph-name="tilde" unicode="&#x2dc;" horiz-adv-x="630" 
d="M327 706q20 -18 30 -23.5t19 -5.5q16 0 24.5 14t12.5 46h58q-4 -56 -28.5 -88t-64.5 -32q-37 0 -75 36q-20 18 -30 23.5t-19 5.5q-16 0 -24.5 -14t-12.5 -46h-58q4 56 28.5 88t64.5 32q37 0 75 -36z" />
    <glyph glyph-name="Acircumflex" unicode="&#xc2;" horiz-adv-x="749" 
d="M508 67h65l-50 140h-299l-50 -140h67v-67h-222v67h74l216 566h-65v67h172l241 -633h73v-67h-222v67zM250 279h247l-124 340zM189 768l122 116h84l122 -116h-84l-80 66l-80 -66h-84z" />
    <glyph glyph-name="Ecircumflex" unicode="&#xca;" horiz-adv-x="596" 
d="M41 700h499v-171h-69v98h-273v-237h284v-73h-284v-244h283v98h69v-171h-509v67h78v566h-78v67zM147 768l122 116h84l122 -116h-84l-80 66l-80 -66h-84z" />
    <glyph glyph-name="Icircumflex" unicode="&#xce;" horiz-adv-x="317" 
d="M41 67h78v566h-78v67h235v-67h-78v-566h78v-67h-235v67zM-6 768l122 116h84l122 -116h-84l-80 66l-80 -66h-84z" />
    <glyph glyph-name="Ocircumflex" unicode="&#xd4;" horiz-adv-x="756" 
d="M378 64q73 0 128.5 37.5t85 102t29.5 146.5q0 86 -32 151t-86.5 100t-124.5 35q-73 0 -128.5 -37.5t-85 -102t-29.5 -146.5q0 -86 32 -151t86.5 -100t124.5 -35zM378 -10q-96 0 -170 48t-114 129.5t-40 182.5q0 106 43 188.5t116.5 127t164.5 44.5q96 0 170 -48
t114 -129.5t40 -182.5q0 -106 -43 -188.5t-116.5 -127t-164.5 -44.5zM214 768l122 116h84l122 -116h-84l-80 66l-80 -66h-84z" />
    <glyph glyph-name="Ucircumflex" unicode="&#xdb;" horiz-adv-x="746" 
d="M474 700h235v-67h-78v-361q0 -138 -66 -210t-192 -72t-192 72t-66 210v361h-78v67h235v-67h-78v-358q0 -104 45 -157.5t134 -53.5t134 53.5t45 157.5v358h-78v67zM209 768l122 116h84l122 -116h-84l-80 66l-80 -66h-84z" />
    <glyph glyph-name="Wcircumflex" unicode="&#x174;" horiz-adv-x="956" 
d="M27 700h217v-67h-71l122 -524l148 531h70l149 -529l120 522h-70v67h217v-67h-64l-159 -633h-85l-144 514l-142 -514h-85l-159 633h-64v67zM314 768l122 116h84l122 -116h-84l-80 66l-80 -66h-84z" />
    <glyph glyph-name="Ycircumflex" unicode="&#x176;" horiz-adv-x="682" 
d="M436 700h226v-67h-76l-205 -357v-209h84v-67h-247v67h84v207l-208 359h-74v67h226v-67h-62l159 -289l159 289h-66v67zM177 768l122 116h84l122 -116h-84l-80 66l-80 -66h-84z" />
    <glyph glyph-name="Atilde" unicode="&#xc3;" horiz-adv-x="749" 
d="M508 67h65l-50 140h-299l-50 -140h67v-67h-222v67h74l216 566h-65v67h172l241 -633h73v-67h-222v67zM250 279h247l-124 340zM338 799q-33 27 -52 27q-18 0 -27 -13.5t-12 -45.5h-60q4 55 30.5 88t68.5 33q21 0 39 -8t43 -29q33 -27 52 -27q18 0 27 13.5t12 45.5h60
q-4 -55 -30.5 -88t-68.5 -33q-21 0 -39 8t-43 29z" />
    <glyph glyph-name="Ntilde" unicode="&#xd1;" horiz-adv-x="756" 
d="M725 633h-78v-633h-78l-371 566v-499h83v-67h-240v67h78v566h-78v67h156l371 -566v499h-83v67h240v-67zM368 799q-33 27 -52 27q-18 0 -27 -13.5t-12 -45.5h-60q4 55 30.5 88t68.5 33q21 0 39 -8t43 -29q33 -27 52 -27q18 0 27 13.5t12 45.5h60q-4 -55 -30.5 -88
t-68.5 -33q-21 0 -39 8t-43 29z" />
    <glyph glyph-name="Otilde" unicode="&#xd5;" horiz-adv-x="756" 
d="M378 64q73 0 128.5 37.5t85 102t29.5 146.5q0 86 -32 151t-86.5 100t-124.5 35q-73 0 -128.5 -37.5t-85 -102t-29.5 -146.5q0 -86 32 -151t86.5 -100t124.5 -35zM378 -10q-96 0 -170 48t-114 129.5t-40 182.5q0 106 43 188.5t116.5 127t164.5 44.5q96 0 170 -48
t114 -129.5t40 -182.5q0 -106 -43 -188.5t-116.5 -127t-164.5 -44.5zM363 799q-33 27 -52 27q-18 0 -27 -13.5t-12 -45.5h-60q4 55 30.5 88t68.5 33q21 0 39 -8t43 -29q33 -27 52 -27q18 0 27 13.5t12 45.5h60q-4 -55 -30.5 -88t-68.5 -33q-21 0 -39 8t-43 29z" />
    <glyph glyph-name="acircumflex" unicode="&#xe2;" horiz-adv-x="569" 
d="M221 -10q-76 0 -119.5 40t-43.5 111q0 77 47 118.5t133 41.5h159v17q0 73 -32 107.5t-99 34.5q-80 0 -159 -44l-25 60q50 28 96.5 41t99.5 13q96 0 145 -52t49 -154v-264h69v-60h-133l-8 58q-36 -32 -84 -50t-95 -18zM239 58q40 0 82.5 17.5t75.5 46.5v117h-144
q-119 0 -119 -96q0 -40 27.5 -62.5t77.5 -22.5zM123 609l114 143h76l114 -143h-73l-79 89l-79 -89h-73z" />
    <glyph glyph-name="ecircumflex" unicode="&#xea;" horiz-adv-x="556" 
d="M126 232q8 -81 57.5 -128t127.5 -47q47 0 82 9t75 32l25 -58q-43 -26 -87.5 -38t-100.5 -12q-78 0 -136 35t-89 95.5t-31 138.5q0 80 32.5 142t86.5 95.5t119 33.5q67 0 116.5 -31.5t76.5 -86.5t27 -124q0 -28 -2 -56h-379zM288 463q-64 0 -107.5 -45t-53.5 -121h304v5
q0 46 -18.5 83.5t-50.5 57.5t-74 20zM132 609l114 143h76l114 -143h-73l-79 89l-79 -89h-73z" />
    <glyph glyph-name="icircumflex" unicode="&#xee;" horiz-adv-x="279" 
d="M33 519h144v-459h69v-60h-213v60h69v399h-69v60zM-30 609l114 143h76l114 -143h-73l-79 89l-79 -89h-73z" />
    <glyph glyph-name="ocircumflex" unicode="&#xf4;" horiz-adv-x="600" 
d="M475 260q0 90 -49 146.5t-126 56.5t-126 -56.5t-49 -146.5t49 -146.5t126 -56.5t126 56.5t49 146.5zM551 260q0 -80 -33.5 -142t-90 -95t-127.5 -33q-75 0 -132 36t-88 97t-31 137q0 80 33.5 142t90 95t127.5 33q75 0 132 -36t88 -97t31 -137zM148 609l114 143h76
l114 -143h-73l-79 89l-79 -89h-73z" />
    <glyph glyph-name="ucircumflex" unicode="&#xfb;" horiz-adv-x="618" 
d="M20 519h144v-318q0 -141 122 -141q77 0 155 63v336h-69v60h144v-459h69v-60h-133l-8 60q-44 -36 -88 -53t-94 -17q-85 0 -129 52.5t-44 152.5v264h-69v60zM142 609l114 143h76l114 -143h-73l-79 89l-79 -89h-73z" />
    <glyph glyph-name="wcircumflex" unicode="&#x175;" horiz-adv-x="854" 
d="M632 519h201v-60h-57l-153 -459h-73l-124 401l-121 -401h-73l-154 459h-57v60h201v-60h-66l112 -368l124 409h73l122 -409l111 368h-66v60zM275 609l114 143h76l114 -143h-73l-79 89l-79 -89h-73z" />
    <glyph glyph-name="ycircumflex" unicode="&#x177;" horiz-adv-x="588" 
d="M371 519h200v-60h-55l-191 -466q-35 -86 -62 -132t-56.5 -66.5t-73.5 -20.5q-50 0 -91 22l17 59q39 -14 66 -14q26 0 45 12t37.5 43t46.5 100l4 10l-186 453h-55v60h202v-60h-64l142 -376l139 376h-65v60zM142 609l114 143h76l114 -143h-73l-79 89l-79 -89h-73z" />
    <glyph glyph-name="atilde" unicode="&#xe3;" horiz-adv-x="569" 
d="M221 -10q-76 0 -119.5 40t-43.5 111q0 77 47 118.5t133 41.5h159v17q0 73 -32 107.5t-99 34.5q-80 0 -159 -44l-25 60q50 28 96.5 41t99.5 13q96 0 145 -52t49 -154v-264h69v-60h-133l-8 58q-36 -32 -84 -50t-95 -18zM239 58q40 0 82.5 17.5t75.5 46.5v117h-144
q-119 0 -119 -96q0 -40 27.5 -62.5t77.5 -22.5zM287 706q20 -18 30 -23.5t19 -5.5q16 0 24.5 14t12.5 46h58q-4 -56 -28.5 -88t-64.5 -32q-37 0 -75 36q-20 18 -30 23.5t-19 5.5q-16 0 -24.5 -14t-12.5 -46h-58q4 56 28.5 88t64.5 32q37 0 75 -36z" />
    <glyph glyph-name="ntilde" unicode="&#xf1;" horiz-adv-x="630" 
d="M389 60h69v258q0 142 -124 142q-81 0 -157 -65v-335h69v-60h-213v60h69v399h-69v60h133l8 -60q44 37 89 54t95 17q85 0 130 -52.5t45 -153.5v-264h69v-60h-213v60zM325 706q20 -18 30 -23.5t19 -5.5q16 0 24.5 14t12.5 46h58q-4 -56 -28.5 -88t-64.5 -32q-37 0 -75 36
q-20 18 -30 23.5t-19 5.5q-16 0 -24.5 -14t-12.5 -46h-58q4 56 28.5 88t64.5 32q37 0 75 -36z" />
    <glyph glyph-name="otilde" unicode="&#xf5;" horiz-adv-x="600" 
d="M475 260q0 90 -49 146.5t-126 56.5t-126 -56.5t-49 -146.5t49 -146.5t126 -56.5t126 56.5t49 146.5zM551 260q0 -80 -33.5 -142t-90 -95t-127.5 -33q-75 0 -132 36t-88 97t-31 137q0 80 33.5 142t90 95t127.5 33q75 0 132 -36t88 -97t31 -137zM312 706q20 -18 30 -23.5
t19 -5.5q16 0 24.5 14t12.5 46h58q-4 -56 -28.5 -88t-64.5 -32q-37 0 -75 36q-20 18 -30 23.5t-19 5.5q-16 0 -24.5 -14t-12.5 -46h-58q4 56 28.5 88t64.5 32q37 0 75 -36z" />
    <glyph glyph-name="uni030C" unicode="&#x30c;" horiz-adv-x="0" 
d="M-79 752l79 -89l79 89h73l-114 -143h-76l-114 143h73z" />
    <glyph glyph-name="uni030C.cap" horiz-adv-x="0" 
d="M-80 874l80 -66l80 66h84l-122 -116h-84l-122 116h84z" />
    <glyph glyph-name="caron" unicode="&#x2c7;" horiz-adv-x="630" 
d="M236 752l79 -89l79 89h73l-114 -143h-76l-114 143h73z" />
    <glyph glyph-name="Scaron" unicode="&#x160;" horiz-adv-x="591" 
d="M60 213h69v-123q66 -26 152 -26q79 0 124 33t45 92q0 49 -34 77t-125 54l-40 11q-95 27 -136.5 71t-41.5 117q0 88 62 139.5t168 51.5q115 0 199 -39v-170h-69v117q-65 18 -126 18q-73 0 -113 -30t-40 -84q0 -45 30.5 -72t107.5 -49l40 -11q106 -29 152.5 -75t46.5 -122
q0 -94 -66.5 -148.5t-179.5 -54.5q-66 0 -119.5 11t-105.5 37v175zM224 884l80 -66l80 66h84l-122 -116h-84l-122 116h84z" />
    <glyph glyph-name="Zcaron" unicode="&#x17d;" horiz-adv-x="618" 
d="M56 0v68l401 559h-322v-108h-69v181h486v-68l-401 -559h342v111h69v-184h-506zM237 884l80 -66l80 66h84l-122 -116h-84l-122 116h84z" />
    <glyph glyph-name="scaron" unicode="&#x161;" horiz-adv-x="470" 
d="M335 376v73q-52 14 -97 14q-48 0 -76 -20t-28 -55q0 -32 21.5 -50t76.5 -34l28 -8q87 -24 124 -59t37 -94q0 -70 -51.5 -111.5t-141.5 -41.5q-102 0 -179 39v120h65v-74q52 -18 110 -18q121 0 121 82q0 33 -24 52t-88 38l-28 8q-79 22 -113 56t-34 92q0 44 23.5 77
t64 50.5t92.5 17.5q41 0 83.5 -9t78.5 -25v-120h-65zM155 752l79 -89l79 89h73l-114 -143h-76l-114 143h73z" />
    <glyph glyph-name="zcaron" unicode="&#x17e;" horiz-adv-x="490" 
d="M56 369v150h383v-57l-303 -397h245v85h65v-150h-402v57l303 397h-226v-85h-65zM166 752l79 -89l79 89h73l-114 -143h-76l-114 143h73z" />
    <glyph glyph-name="uni0308" unicode="&#x308;" horiz-adv-x="0" 
d="M-84 634q-22 0 -35.5 13.5t-13.5 33.5t13.5 33.5t35.5 13.5t35.5 -13.5t13.5 -33.5t-13.5 -33.5t-35.5 -13.5zM84 634q-22 0 -35.5 13.5t-13.5 33.5t13.5 33.5t35.5 13.5t35.5 -13.5t13.5 -33.5t-13.5 -33.5t-35.5 -13.5z" />
    <glyph glyph-name="uni0308.cap" horiz-adv-x="0" 
d="M-38 818q0 -22 -14 -35.5t-36 -13.5t-36 13.5t-14 35.5t14 35.5t36 13.5t36 -13.5t14 -35.5zM138 818q0 -22 -14 -35.5t-36 -13.5t-36 13.5t-14 35.5t14 35.5t36 13.5t36 -13.5t14 -35.5z" />
    <glyph glyph-name="dieresis" unicode="&#xa8;" horiz-adv-x="630" 
d="M231 634q-22 0 -35.5 13.5t-13.5 33.5t13.5 33.5t35.5 13.5t35.5 -13.5t13.5 -33.5t-13.5 -33.5t-35.5 -13.5zM399 634q-22 0 -35.5 13.5t-13.5 33.5t13.5 33.5t35.5 13.5t35.5 -13.5t13.5 -33.5t-13.5 -33.5t-35.5 -13.5z" />
    <glyph glyph-name="uni0306" unicode="&#x306;" horiz-adv-x="0" 
d="M0 606q-58 0 -94.5 34t-39.5 89h57q13 -65 77 -65t77 65h57q-3 -55 -39.5 -89t-94.5 -34z" />
    <glyph glyph-name="uni0306.cap" horiz-adv-x="0" 
d="M0 753q-60 0 -98 33.5t-41 88.5h60q7 -31 27.5 -48t51.5 -17t51.5 17t27.5 48h60q-3 -55 -41 -88.5t-98 -33.5z" />
    <glyph glyph-name="breve" unicode="&#x2d8;" horiz-adv-x="630" 
d="M315 606q-58 0 -94.5 34t-39.5 89h57q13 -65 77 -65t77 65h57q-3 -55 -39.5 -89t-94.5 -34z" />
    <glyph glyph-name="Adieresis" unicode="&#xc4;" horiz-adv-x="749" 
d="M508 67h65l-50 140h-299l-50 -140h67v-67h-222v67h74l216 566h-65v67h172l241 -633h73v-67h-222v67zM250 279h247l-124 340zM315 828q0 -22 -14 -35.5t-36 -13.5t-36 13.5t-14 35.5t14 35.5t36 13.5t36 -13.5t14 -35.5zM491 828q0 -22 -14 -35.5t-36 -13.5t-36 13.5
t-14 35.5t14 35.5t36 13.5t36 -13.5t14 -35.5z" />
    <glyph glyph-name="Edieresis" unicode="&#xcb;" horiz-adv-x="596" 
d="M41 700h499v-171h-69v98h-273v-237h284v-73h-284v-244h283v98h69v-171h-509v67h78v566h-78v67zM273 828q0 -22 -14 -35.5t-36 -13.5t-36 13.5t-14 35.5t14 35.5t36 13.5t36 -13.5t14 -35.5zM449 828q0 -22 -14 -35.5t-36 -13.5t-36 13.5t-14 35.5t14 35.5t36 13.5
t36 -13.5t14 -35.5z" />
    <glyph glyph-name="Idieresis" unicode="&#xcf;" horiz-adv-x="317" 
d="M41 67h78v566h-78v67h235v-67h-78v-566h78v-67h-235v67zM120 828q0 -22 -14 -35.5t-36 -13.5t-36 13.5t-14 35.5t14 35.5t36 13.5t36 -13.5t14 -35.5zM296 828q0 -22 -14 -35.5t-36 -13.5t-36 13.5t-14 35.5t14 35.5t36 13.5t36 -13.5t14 -35.5z" />
    <glyph glyph-name="Odieresis" unicode="&#xd6;" horiz-adv-x="756" 
d="M378 64q73 0 128.5 37.5t85 102t29.5 146.5q0 86 -32 151t-86.5 100t-124.5 35q-73 0 -128.5 -37.5t-85 -102t-29.5 -146.5q0 -86 32 -151t86.5 -100t124.5 -35zM378 -10q-96 0 -170 48t-114 129.5t-40 182.5q0 106 43 188.5t116.5 127t164.5 44.5q96 0 170 -48
t114 -129.5t40 -182.5q0 -106 -43 -188.5t-116.5 -127t-164.5 -44.5zM340 828q0 -22 -14 -35.5t-36 -13.5t-36 13.5t-14 35.5t14 35.5t36 13.5t36 -13.5t14 -35.5zM516 828q0 -22 -14 -35.5t-36 -13.5t-36 13.5t-14 35.5t14 35.5t36 13.5t36 -13.5t14 -35.5z" />
    <glyph glyph-name="Udieresis" unicode="&#xdc;" horiz-adv-x="746" 
d="M474 700h235v-67h-78v-361q0 -138 -66 -210t-192 -72t-192 72t-66 210v361h-78v67h235v-67h-78v-358q0 -104 45 -157.5t134 -53.5t134 53.5t45 157.5v358h-78v67zM335 828q0 -22 -14 -35.5t-36 -13.5t-36 13.5t-14 35.5t14 35.5t36 13.5t36 -13.5t14 -35.5zM511 828
q0 -22 -14 -35.5t-36 -13.5t-36 13.5t-14 35.5t14 35.5t36 13.5t36 -13.5t14 -35.5z" />
    <glyph glyph-name="Wdieresis" unicode="&#x1e84;" horiz-adv-x="956" 
d="M27 700h217v-67h-71l122 -524l148 531h70l149 -529l120 522h-70v67h217v-67h-64l-159 -633h-85l-144 514l-142 -514h-85l-159 633h-64v67zM440 828q0 -22 -14 -35.5t-36 -13.5t-36 13.5t-14 35.5t14 35.5t36 13.5t36 -13.5t14 -35.5zM616 828q0 -22 -14 -35.5t-36 -13.5
t-36 13.5t-14 35.5t14 35.5t36 13.5t36 -13.5t14 -35.5z" />
    <glyph glyph-name="Ydieresis" unicode="&#x178;" horiz-adv-x="682" 
d="M436 700h226v-67h-76l-205 -357v-209h84v-67h-247v67h84v207l-208 359h-74v67h226v-67h-62l159 -289l159 289h-66v67zM303 828q0 -22 -14 -35.5t-36 -13.5t-36 13.5t-14 35.5t14 35.5t36 13.5t36 -13.5t14 -35.5zM479 828q0 -22 -14 -35.5t-36 -13.5t-36 13.5t-14 35.5
t14 35.5t36 13.5t36 -13.5t14 -35.5z" />
    <glyph glyph-name="Abreve" unicode="&#x102;" horiz-adv-x="749" 
d="M508 67h65l-50 140h-299l-50 -140h67v-67h-222v67h74l216 566h-65v67h172l241 -633h73v-67h-222v67zM250 279h247l-124 340zM353 763q-60 0 -98 33.5t-41 88.5h60q7 -31 27.5 -48t51.5 -17t51.5 17t27.5 48h60q-3 -55 -41 -88.5t-98 -33.5z" />
    <glyph glyph-name="adieresis" unicode="&#xe4;" horiz-adv-x="569" 
d="M221 -10q-76 0 -119.5 40t-43.5 111q0 77 47 118.5t133 41.5h159v17q0 73 -32 107.5t-99 34.5q-80 0 -159 -44l-25 60q50 28 96.5 41t99.5 13q96 0 145 -52t49 -154v-264h69v-60h-133l-8 58q-36 -32 -84 -50t-95 -18zM239 58q40 0 82.5 17.5t75.5 46.5v117h-144
q-119 0 -119 -96q0 -40 27.5 -62.5t77.5 -22.5zM191 634q-22 0 -35.5 13.5t-13.5 33.5t13.5 33.5t35.5 13.5t35.5 -13.5t13.5 -33.5t-13.5 -33.5t-35.5 -13.5zM359 634q-22 0 -35.5 13.5t-13.5 33.5t13.5 33.5t35.5 13.5t35.5 -13.5t13.5 -33.5t-13.5 -33.5t-35.5 -13.5z
" />
    <glyph glyph-name="edieresis" unicode="&#xeb;" horiz-adv-x="556" 
d="M126 232q8 -81 57.5 -128t127.5 -47q47 0 82 9t75 32l25 -58q-43 -26 -87.5 -38t-100.5 -12q-78 0 -136 35t-89 95.5t-31 138.5q0 80 32.5 142t86.5 95.5t119 33.5q67 0 116.5 -31.5t76.5 -86.5t27 -124q0 -28 -2 -56h-379zM288 463q-64 0 -107.5 -45t-53.5 -121h304v5
q0 46 -18.5 83.5t-50.5 57.5t-74 20zM200 634q-22 0 -35.5 13.5t-13.5 33.5t13.5 33.5t35.5 13.5t35.5 -13.5t13.5 -33.5t-13.5 -33.5t-35.5 -13.5zM368 634q-22 0 -35.5 13.5t-13.5 33.5t13.5 33.5t35.5 13.5t35.5 -13.5t13.5 -33.5t-13.5 -33.5t-35.5 -13.5z" />
    <glyph glyph-name="idieresis" unicode="&#xef;" horiz-adv-x="279" 
d="M33 519h144v-459h69v-60h-213v60h69v399h-69v60zM38 634q-22 0 -35.5 13.5t-13.5 33.5t13.5 33.5t35.5 13.5t35.5 -13.5t13.5 -33.5t-13.5 -33.5t-35.5 -13.5zM206 634q-22 0 -35.5 13.5t-13.5 33.5t13.5 33.5t35.5 13.5t35.5 -13.5t13.5 -33.5t-13.5 -33.5t-35.5 -13.5z
" />
    <glyph glyph-name="odieresis" unicode="&#xf6;" horiz-adv-x="600" 
d="M475 260q0 90 -49 146.5t-126 56.5t-126 -56.5t-49 -146.5t49 -146.5t126 -56.5t126 56.5t49 146.5zM551 260q0 -80 -33.5 -142t-90 -95t-127.5 -33q-75 0 -132 36t-88 97t-31 137q0 80 33.5 142t90 95t127.5 33q75 0 132 -36t88 -97t31 -137zM216 634q-22 0 -35.5 13.5
t-13.5 33.5t13.5 33.5t35.5 13.5t35.5 -13.5t13.5 -33.5t-13.5 -33.5t-35.5 -13.5zM384 634q-22 0 -35.5 13.5t-13.5 33.5t13.5 33.5t35.5 13.5t35.5 -13.5t13.5 -33.5t-13.5 -33.5t-35.5 -13.5z" />
    <glyph glyph-name="udieresis" unicode="&#xfc;" horiz-adv-x="618" 
d="M20 519h144v-318q0 -141 122 -141q77 0 155 63v336h-69v60h144v-459h69v-60h-133l-8 60q-44 -36 -88 -53t-94 -17q-85 0 -129 52.5t-44 152.5v264h-69v60zM210 634q-22 0 -35.5 13.5t-13.5 33.5t13.5 33.5t35.5 13.5t35.5 -13.5t13.5 -33.5t-13.5 -33.5t-35.5 -13.5z
M378 634q-22 0 -35.5 13.5t-13.5 33.5t13.5 33.5t35.5 13.5t35.5 -13.5t13.5 -33.5t-13.5 -33.5t-35.5 -13.5z" />
    <glyph glyph-name="wdieresis" unicode="&#x1e85;" horiz-adv-x="854" 
d="M632 519h201v-60h-57l-153 -459h-73l-124 401l-121 -401h-73l-154 459h-57v60h201v-60h-66l112 -368l124 409h73l122 -409l111 368h-66v60zM343 634q-22 0 -35.5 13.5t-13.5 33.5t13.5 33.5t35.5 13.5t35.5 -13.5t13.5 -33.5t-13.5 -33.5t-35.5 -13.5zM511 634
q-22 0 -35.5 13.5t-13.5 33.5t13.5 33.5t35.5 13.5t35.5 -13.5t13.5 -33.5t-13.5 -33.5t-35.5 -13.5z" />
    <glyph glyph-name="ydieresis" unicode="&#xff;" horiz-adv-x="588" 
d="M371 519h200v-60h-55l-191 -466q-35 -86 -62 -132t-56.5 -66.5t-73.5 -20.5q-50 0 -91 22l17 59q39 -14 66 -14q26 0 45 12t37.5 43t46.5 100l4 10l-186 453h-55v60h202v-60h-64l142 -376l139 376h-65v60zM210 634q-22 0 -35.5 13.5t-13.5 33.5t13.5 33.5t35.5 13.5
t35.5 -13.5t13.5 -33.5t-13.5 -33.5t-35.5 -13.5zM378 634q-22 0 -35.5 13.5t-13.5 33.5t13.5 33.5t35.5 13.5t35.5 -13.5t13.5 -33.5t-13.5 -33.5t-35.5 -13.5z" />
    <glyph glyph-name="abreve" unicode="&#x103;" horiz-adv-x="569" 
d="M221 -10q-76 0 -119.5 40t-43.5 111q0 77 47 118.5t133 41.5h159v17q0 73 -32 107.5t-99 34.5q-80 0 -159 -44l-25 60q50 28 96.5 41t99.5 13q96 0 145 -52t49 -154v-264h69v-60h-133l-8 58q-36 -32 -84 -50t-95 -18zM239 58q40 0 82.5 17.5t75.5 46.5v117h-144
q-119 0 -119 -96q0 -40 27.5 -62.5t77.5 -22.5zM275 606q-58 0 -94.5 34t-39.5 89h57q13 -65 77 -65t77 65h57q-3 -55 -39.5 -89t-94.5 -34z" />
    <glyph glyph-name="uni030A" unicode="&#x30a;" horiz-adv-x="0" 
d="M0 633q23 0 39 16t16 40t-16 40t-39 16t-39 -16t-16 -40t16 -40t39 -16zM0 586q-47 0 -77 29t-30 74t30 74t77 29t77 -29t30 -74t-30 -74t-77 -29z" />
    <glyph glyph-name="uni030A.cap" horiz-adv-x="0" 
d="M0 793q23 0 38.5 16t15.5 39t-15.5 39t-38.5 16t-38.5 -16t-15.5 -39t15.5 -39t38.5 -16zM0 744q-48 0 -78 29t-30 75t30 75t78 29t78 -29t30 -75t-30 -75t-78 -29z" />
    <glyph glyph-name="ring" unicode="&#x2da;" horiz-adv-x="630" 
d="M315 633q23 0 39 16t16 40t-16 40t-39 16t-39 -16t-16 -40t16 -40t39 -16zM315 586q-47 0 -77 29t-30 74t30 74t77 29t77 -29t30 -74t-30 -74t-77 -29z" />
    <glyph glyph-name="Aring" unicode="&#xc5;" horiz-adv-x="749" 
d="M508 67h65l-50 140h-299l-50 -140h67v-67h-222v67h74l216 566h-65v67h172l241 -633h73v-67h-222v67zM250 279h247l-124 340zM353 803q23 0 38.5 16t15.5 39t-15.5 39t-38.5 16t-38.5 -16t-15.5 -39t15.5 -39t38.5 -16zM353 754q-48 0 -78 29t-30 75t30 75t78 29t78 -29
t30 -75t-30 -75t-78 -29z" />
    <glyph glyph-name="aring" unicode="&#xe5;" horiz-adv-x="569" 
d="M221 -10q-76 0 -119.5 40t-43.5 111q0 77 47 118.5t133 41.5h159v17q0 73 -32 107.5t-99 34.5q-80 0 -159 -44l-25 60q50 28 96.5 41t99.5 13q96 0 145 -52t49 -154v-264h69v-60h-133l-8 58q-36 -32 -84 -50t-95 -18zM239 58q40 0 82.5 17.5t75.5 46.5v117h-144
q-119 0 -119 -96q0 -40 27.5 -62.5t77.5 -22.5zM275 633q23 0 39 16t16 40t-16 40t-39 16t-39 -16t-16 -40t16 -40t39 -16zM275 586q-47 0 -77 29t-30 74t30 74t77 29t77 -29t30 -74t-30 -74t-77 -29z" />
    <glyph glyph-name="uniFEFF" unicode="&#xfeff;" horiz-adv-x="0" 
 />
    <glyph glyph-name="attaleck" horiz-adv-x="638" 
d="M432 -10q-21 0 -39 6q-50 15 -74 15t-74 -15q-18 -6 -39 -6q-66 0 -85 76q-19 77 -19 94q0 19 8 39q3 9 3 23q0 21 -5 48.5t-12.5 56.5l-14.5 54t-11 42q-10 40 -10 55q0 43 40 75q7 6 10 9.5t5.5 8t5.5 13.5q21 60 72 93t126 33t126 -33t72 -93q3 -8 5 -12.5t5 -8
t11 -10.5q40 -32 40 -75q0 -15 -10 -55q-4 -17 -11 -42l-14.5 -54t-12.5 -56.5t-5 -48.5q0 -14 3 -23q8 -20 8 -39q0 -17 -19 -94q-19 -76 -85 -76zM213 238q5 0 14 7.5t14 16.5q7 12 15.5 35.5t8.5 28.5t-5 5q-1 0 -2.5 -0.5t-3.5 -2.5q-4 -4 -10 -7t-10 -3q-3 0 -5.5 1.5
t-2.5 2.5q0 4 8 10q10 7 10 11q0 5 -7 5q-3 0 -9 -7q-5 -5 -12 -5q-11 0 -16 8q-3 6 -7 6q-7 0 -7 -5q0 -2 0.5 -4t0.5 -4q0 -8 -7 -8q-4 0 -9 4q-3 2 -11 2q-3 0 -5.5 2t-2.5 5q0 7 13 14q4 3 27 8q4 1 4 7t-7 6q-19 0 -32 -5q-13 -4 -18 -11t-5 -18q0 -18 10 -41t27 -40
q12 -13 22 -18.5t20 -5.5zM318 53q22 0 41 8t27 21q12 17 12 37v19q0 13 2 25q1 4 1.5 7.5t0.5 5.5q0 4 -5 4t-24.5 -3.5t-54.5 -3.5q-34 0 -53 3.5t-24 3.5q-7 0 -7 -4q0 -2 2 -9.5t4 -11.5q3 -5 18 -7q25 -2 44 -2q23 0 35 1t18 1q16 0 16 -12q0 -11 -14 -13
q-25 -3 -53 -3q-17 0 -29.5 1t-21.5 1q-13 0 -13 -10q0 -13 12 -30q9 -13 27 -21t39 -8zM449 204q15 0 25 37q9 35 20 49q8 9 15 21t7 18q0 8 -4 8q-1 0 -5 -1.5t-8 -3.5t-5 -2q-7 0 -7 9q0 8 6 29.5t15 45.5q13 33 13 48q0 11 -8 25q-10 15 -15 15t-13 -8q-17 -17 -42 -17
q-29 0 -45 28q-7 12 -7 19q0 6 5 6q3 0 10 -5t11 -5q6 0 11 8q5 10 5 26q0 17 -6.5 29.5t-14.5 12.5q-3 0 -17 -4t-34.5 -8.5t-42.5 -4.5q-11 0 -32 3t-28 5q-15 5 -22 7t-10 2q-7 0 -18 -7q-12 -7 -28.5 -20.5t-25.5 -24.5q-29 -31 -29 -49q1 -10 4.5 -20t4.5 -25
q0 -12 -1.5 -20t-1.5 -15q0 -8 2.5 -10t13.5 -2q17 0 36.5 3t36 6t22.5 3q12 0 20.5 -4t18.5 -14q13 -13 13 -32q0 -6 -1 -17t-2 -20l-8 -79q2 -32 35 -32q17 0 26.5 8.5t9.5 23.5q0 4 -0.5 7.5t-0.5 6.5q0 11 8 11q5 0 20 -15l37 -38q16 -17 31 -17zM345 373q-4 0 -6.5 2.5
t-2.5 5.5q0 5 6 8q12 7 44.5 21t42.5 17q9 3 13 3q9 0 18 -8q7 -6 14.5 -15t7.5 -12q0 -5 -3 -9t-7 -4q-5 0 -9 2.5t-11 7.5t-16 5q-12 0 -47 -11q-7 -2 -16 -5l-17 -5.5t-11 -2.5zM431 338q-12 1 -24 4.5t-21 3.5q-11 0 -16.5 -0.5t-12.5 -0.5q-9 0 -9 5q0 7 6 8
q9 3 37.5 6t37.5 3q6 0 8.5 -1.5t4.5 -6.5q3 -6 10 -6q3 0 5.5 1t6.5 1q5 0 5 -5q0 -4 -13.5 -8t-24.5 -4z" />
    </font>
</defs>
</svg>
